<?xml version="1.0" encoding="utf-8"?>
<svg xmlns="http://www.w3.org/2000/svg" xmlns:xlink="http://www.w3.org/1999/xlink" width="600" height="400" viewBox="0 0 2400 1600">
<defs>
  <clipPath id="clip090">
    <rect x="0" y="0" width="2400" height="1600"/>
  </clipPath>
</defs>
<path clip-path="url(#clip090)" d="
M0 1600 L2400 1600 L2400 0 L0 0  Z
  " fill="#ffffff" fill-rule="evenodd" fill-opacity="1"/>
<defs>
  <clipPath id="clip091">
    <rect x="480" y="0" width="1681" height="1600"/>
  </clipPath>
</defs>
<path clip-path="url(#clip090)" d="
M250.028 1423.18 L2352.76 1423.18 L2352.76 47.2441 L250.028 47.2441  Z
  " fill="#ffffff" fill-rule="evenodd" fill-opacity="1"/>
<defs>
  <clipPath id="clip092">
    <rect x="250" y="47" width="2104" height="1377"/>
  </clipPath>
</defs>
<polyline clip-path="url(#clip092)" style="stroke:#222255; stroke-linecap:butt; stroke-linejoin:round; stroke-width:2; stroke-opacity:0.1; fill:none" points="
  274.116,1423.18 274.116,47.2441 
  "/>
<polyline clip-path="url(#clip092)" style="stroke:#222255; stroke-linecap:butt; stroke-linejoin:round; stroke-width:2; stroke-opacity:0.1; fill:none" points="
  628.349,1423.18 628.349,47.2441 
  "/>
<polyline clip-path="url(#clip092)" style="stroke:#222255; stroke-linecap:butt; stroke-linejoin:round; stroke-width:2; stroke-opacity:0.1; fill:none" points="
  982.582,1423.18 982.582,47.2441 
  "/>
<polyline clip-path="url(#clip092)" style="stroke:#222255; stroke-linecap:butt; stroke-linejoin:round; stroke-width:2; stroke-opacity:0.1; fill:none" points="
  1336.82,1423.18 1336.82,47.2441 
  "/>
<polyline clip-path="url(#clip092)" style="stroke:#222255; stroke-linecap:butt; stroke-linejoin:round; stroke-width:2; stroke-opacity:0.1; fill:none" points="
  1691.05,1423.18 1691.05,47.2441 
  "/>
<polyline clip-path="url(#clip092)" style="stroke:#222255; stroke-linecap:butt; stroke-linejoin:round; stroke-width:2; stroke-opacity:0.1; fill:none" points="
  2045.28,1423.18 2045.28,47.2441 
  "/>
<polyline clip-path="url(#clip092)" style="stroke:#222255; stroke-linecap:butt; stroke-linejoin:round; stroke-width:2; stroke-opacity:0.05; fill:none" points="
  344.963,1423.18 344.963,47.2441 
  "/>
<polyline clip-path="url(#clip092)" style="stroke:#222255; stroke-linecap:butt; stroke-linejoin:round; stroke-width:2; stroke-opacity:0.05; fill:none" points="
  415.809,1423.18 415.809,47.2441 
  "/>
<polyline clip-path="url(#clip092)" style="stroke:#222255; stroke-linecap:butt; stroke-linejoin:round; stroke-width:2; stroke-opacity:0.05; fill:none" points="
  486.656,1423.18 486.656,47.2441 
  "/>
<polyline clip-path="url(#clip092)" style="stroke:#222255; stroke-linecap:butt; stroke-linejoin:round; stroke-width:2; stroke-opacity:0.05; fill:none" points="
  557.502,1423.18 557.502,47.2441 
  "/>
<polyline clip-path="url(#clip092)" style="stroke:#222255; stroke-linecap:butt; stroke-linejoin:round; stroke-width:2; stroke-opacity:0.05; fill:none" points="
  699.196,1423.18 699.196,47.2441 
  "/>
<polyline clip-path="url(#clip092)" style="stroke:#222255; stroke-linecap:butt; stroke-linejoin:round; stroke-width:2; stroke-opacity:0.05; fill:none" points="
  770.042,1423.18 770.042,47.2441 
  "/>
<polyline clip-path="url(#clip092)" style="stroke:#222255; stroke-linecap:butt; stroke-linejoin:round; stroke-width:2; stroke-opacity:0.05; fill:none" points="
  840.889,1423.18 840.889,47.2441 
  "/>
<polyline clip-path="url(#clip092)" style="stroke:#222255; stroke-linecap:butt; stroke-linejoin:round; stroke-width:2; stroke-opacity:0.05; fill:none" points="
  911.736,1423.18 911.736,47.2441 
  "/>
<polyline clip-path="url(#clip092)" style="stroke:#222255; stroke-linecap:butt; stroke-linejoin:round; stroke-width:2; stroke-opacity:0.05; fill:none" points="
  1053.43,1423.18 1053.43,47.2441 
  "/>
<polyline clip-path="url(#clip092)" style="stroke:#222255; stroke-linecap:butt; stroke-linejoin:round; stroke-width:2; stroke-opacity:0.05; fill:none" points="
  1124.28,1423.18 1124.28,47.2441 
  "/>
<polyline clip-path="url(#clip092)" style="stroke:#222255; stroke-linecap:butt; stroke-linejoin:round; stroke-width:2; stroke-opacity:0.05; fill:none" points="
  1195.12,1423.18 1195.12,47.2441 
  "/>
<polyline clip-path="url(#clip092)" style="stroke:#222255; stroke-linecap:butt; stroke-linejoin:round; stroke-width:2; stroke-opacity:0.05; fill:none" points="
  1265.97,1423.18 1265.97,47.2441 
  "/>
<polyline clip-path="url(#clip092)" style="stroke:#222255; stroke-linecap:butt; stroke-linejoin:round; stroke-width:2; stroke-opacity:0.05; fill:none" points="
  1407.66,1423.18 1407.66,47.2441 
  "/>
<polyline clip-path="url(#clip092)" style="stroke:#222255; stroke-linecap:butt; stroke-linejoin:round; stroke-width:2; stroke-opacity:0.05; fill:none" points="
  1478.51,1423.18 1478.51,47.2441 
  "/>
<polyline clip-path="url(#clip092)" style="stroke:#222255; stroke-linecap:butt; stroke-linejoin:round; stroke-width:2; stroke-opacity:0.05; fill:none" points="
  1549.36,1423.18 1549.36,47.2441 
  "/>
<polyline clip-path="url(#clip092)" style="stroke:#222255; stroke-linecap:butt; stroke-linejoin:round; stroke-width:2; stroke-opacity:0.05; fill:none" points="
  1620.2,1423.18 1620.2,47.2441 
  "/>
<polyline clip-path="url(#clip092)" style="stroke:#222255; stroke-linecap:butt; stroke-linejoin:round; stroke-width:2; stroke-opacity:0.05; fill:none" points="
  1761.9,1423.18 1761.9,47.2441 
  "/>
<polyline clip-path="url(#clip092)" style="stroke:#222255; stroke-linecap:butt; stroke-linejoin:round; stroke-width:2; stroke-opacity:0.05; fill:none" points="
  1832.74,1423.18 1832.74,47.2441 
  "/>
<polyline clip-path="url(#clip092)" style="stroke:#222255; stroke-linecap:butt; stroke-linejoin:round; stroke-width:2; stroke-opacity:0.05; fill:none" points="
  1903.59,1423.18 1903.59,47.2441 
  "/>
<polyline clip-path="url(#clip092)" style="stroke:#222255; stroke-linecap:butt; stroke-linejoin:round; stroke-width:2; stroke-opacity:0.05; fill:none" points="
  1974.43,1423.18 1974.43,47.2441 
  "/>
<polyline clip-path="url(#clip092)" style="stroke:#222255; stroke-linecap:butt; stroke-linejoin:round; stroke-width:2; stroke-opacity:0.05; fill:none" points="
  2116.13,1423.18 2116.13,47.2441 
  "/>
<polyline clip-path="url(#clip092)" style="stroke:#222255; stroke-linecap:butt; stroke-linejoin:round; stroke-width:2; stroke-opacity:0.05; fill:none" points="
  2186.97,1423.18 2186.97,47.2441 
  "/>
<polyline clip-path="url(#clip092)" style="stroke:#222255; stroke-linecap:butt; stroke-linejoin:round; stroke-width:2; stroke-opacity:0.05; fill:none" points="
  2257.82,1423.18 2257.82,47.2441 
  "/>
<polyline clip-path="url(#clip092)" style="stroke:#222255; stroke-linecap:butt; stroke-linejoin:round; stroke-width:2; stroke-opacity:0.05; fill:none" points="
  2328.67,1423.18 2328.67,47.2441 
  "/>
<polyline clip-path="url(#clip090)" style="stroke:#222255; stroke-linecap:butt; stroke-linejoin:round; stroke-width:4; stroke-opacity:0; fill:none" points="
  274.116,1423.18 274.116,1404.28 
  "/>
<polyline clip-path="url(#clip090)" style="stroke:#222255; stroke-linecap:butt; stroke-linejoin:round; stroke-width:4; stroke-opacity:0; fill:none" points="
  628.349,1423.18 628.349,1404.28 
  "/>
<polyline clip-path="url(#clip090)" style="stroke:#222255; stroke-linecap:butt; stroke-linejoin:round; stroke-width:4; stroke-opacity:0; fill:none" points="
  982.582,1423.18 982.582,1404.28 
  "/>
<polyline clip-path="url(#clip090)" style="stroke:#222255; stroke-linecap:butt; stroke-linejoin:round; stroke-width:4; stroke-opacity:0; fill:none" points="
  1336.82,1423.18 1336.82,1404.28 
  "/>
<polyline clip-path="url(#clip090)" style="stroke:#222255; stroke-linecap:butt; stroke-linejoin:round; stroke-width:4; stroke-opacity:0; fill:none" points="
  1691.05,1423.18 1691.05,1404.28 
  "/>
<polyline clip-path="url(#clip090)" style="stroke:#222255; stroke-linecap:butt; stroke-linejoin:round; stroke-width:4; stroke-opacity:0; fill:none" points="
  2045.28,1423.18 2045.28,1404.28 
  "/>
<polyline clip-path="url(#clip090)" style="stroke:#222255; stroke-linecap:butt; stroke-linejoin:round; stroke-width:4; stroke-opacity:0; fill:none" points="
  344.963,1423.18 344.963,1413.73 
  "/>
<polyline clip-path="url(#clip090)" style="stroke:#222255; stroke-linecap:butt; stroke-linejoin:round; stroke-width:4; stroke-opacity:0; fill:none" points="
  415.809,1423.18 415.809,1413.73 
  "/>
<polyline clip-path="url(#clip090)" style="stroke:#222255; stroke-linecap:butt; stroke-linejoin:round; stroke-width:4; stroke-opacity:0; fill:none" points="
  486.656,1423.18 486.656,1413.73 
  "/>
<polyline clip-path="url(#clip090)" style="stroke:#222255; stroke-linecap:butt; stroke-linejoin:round; stroke-width:4; stroke-opacity:0; fill:none" points="
  557.502,1423.18 557.502,1413.73 
  "/>
<polyline clip-path="url(#clip090)" style="stroke:#222255; stroke-linecap:butt; stroke-linejoin:round; stroke-width:4; stroke-opacity:0; fill:none" points="
  699.196,1423.18 699.196,1413.73 
  "/>
<polyline clip-path="url(#clip090)" style="stroke:#222255; stroke-linecap:butt; stroke-linejoin:round; stroke-width:4; stroke-opacity:0; fill:none" points="
  770.042,1423.18 770.042,1413.73 
  "/>
<polyline clip-path="url(#clip090)" style="stroke:#222255; stroke-linecap:butt; stroke-linejoin:round; stroke-width:4; stroke-opacity:0; fill:none" points="
  840.889,1423.18 840.889,1413.73 
  "/>
<polyline clip-path="url(#clip090)" style="stroke:#222255; stroke-linecap:butt; stroke-linejoin:round; stroke-width:4; stroke-opacity:0; fill:none" points="
  911.736,1423.18 911.736,1413.73 
  "/>
<polyline clip-path="url(#clip090)" style="stroke:#222255; stroke-linecap:butt; stroke-linejoin:round; stroke-width:4; stroke-opacity:0; fill:none" points="
  1053.43,1423.18 1053.43,1413.73 
  "/>
<polyline clip-path="url(#clip090)" style="stroke:#222255; stroke-linecap:butt; stroke-linejoin:round; stroke-width:4; stroke-opacity:0; fill:none" points="
  1124.28,1423.18 1124.28,1413.73 
  "/>
<polyline clip-path="url(#clip090)" style="stroke:#222255; stroke-linecap:butt; stroke-linejoin:round; stroke-width:4; stroke-opacity:0; fill:none" points="
  1195.12,1423.18 1195.12,1413.73 
  "/>
<polyline clip-path="url(#clip090)" style="stroke:#222255; stroke-linecap:butt; stroke-linejoin:round; stroke-width:4; stroke-opacity:0; fill:none" points="
  1265.97,1423.18 1265.97,1413.73 
  "/>
<polyline clip-path="url(#clip090)" style="stroke:#222255; stroke-linecap:butt; stroke-linejoin:round; stroke-width:4; stroke-opacity:0; fill:none" points="
  1407.66,1423.18 1407.66,1413.73 
  "/>
<polyline clip-path="url(#clip090)" style="stroke:#222255; stroke-linecap:butt; stroke-linejoin:round; stroke-width:4; stroke-opacity:0; fill:none" points="
  1478.51,1423.18 1478.51,1413.73 
  "/>
<polyline clip-path="url(#clip090)" style="stroke:#222255; stroke-linecap:butt; stroke-linejoin:round; stroke-width:4; stroke-opacity:0; fill:none" points="
  1549.36,1423.18 1549.36,1413.73 
  "/>
<polyline clip-path="url(#clip090)" style="stroke:#222255; stroke-linecap:butt; stroke-linejoin:round; stroke-width:4; stroke-opacity:0; fill:none" points="
  1620.2,1423.18 1620.2,1413.73 
  "/>
<polyline clip-path="url(#clip090)" style="stroke:#222255; stroke-linecap:butt; stroke-linejoin:round; stroke-width:4; stroke-opacity:0; fill:none" points="
  1761.9,1423.18 1761.9,1413.73 
  "/>
<polyline clip-path="url(#clip090)" style="stroke:#222255; stroke-linecap:butt; stroke-linejoin:round; stroke-width:4; stroke-opacity:0; fill:none" points="
  1832.74,1423.18 1832.74,1413.73 
  "/>
<polyline clip-path="url(#clip090)" style="stroke:#222255; stroke-linecap:butt; stroke-linejoin:round; stroke-width:4; stroke-opacity:0; fill:none" points="
  1903.59,1423.18 1903.59,1413.73 
  "/>
<polyline clip-path="url(#clip090)" style="stroke:#222255; stroke-linecap:butt; stroke-linejoin:round; stroke-width:4; stroke-opacity:0; fill:none" points="
  1974.43,1423.18 1974.43,1413.73 
  "/>
<polyline clip-path="url(#clip090)" style="stroke:#222255; stroke-linecap:butt; stroke-linejoin:round; stroke-width:4; stroke-opacity:0; fill:none" points="
  2116.13,1423.18 2116.13,1413.73 
  "/>
<polyline clip-path="url(#clip090)" style="stroke:#222255; stroke-linecap:butt; stroke-linejoin:round; stroke-width:4; stroke-opacity:0; fill:none" points="
  2186.97,1423.18 2186.97,1413.73 
  "/>
<polyline clip-path="url(#clip090)" style="stroke:#222255; stroke-linecap:butt; stroke-linejoin:round; stroke-width:4; stroke-opacity:0; fill:none" points="
  2257.82,1423.18 2257.82,1413.73 
  "/>
<polyline clip-path="url(#clip090)" style="stroke:#222255; stroke-linecap:butt; stroke-linejoin:round; stroke-width:4; stroke-opacity:0; fill:none" points="
  2328.67,1423.18 2328.67,1413.73 
  "/>
<path clip-path="url(#clip090)" d="M274.116 1454.1 Q270.505 1454.1 268.676 1457.66 Q266.871 1461.2 266.871 1468.33 Q266.871 1475.44 268.676 1479.01 Q270.505 1482.55 274.116 1482.55 Q277.75 1482.55 279.556 1479.01 Q281.384 1475.44 281.384 1468.33 Q281.384 1461.2 279.556 1457.66 Q277.75 1454.1 274.116 1454.1 M274.116 1450.39 Q279.926 1450.39 282.982 1455 Q286.06 1459.58 286.06 1468.33 Q286.06 1477.06 282.982 1481.67 Q279.926 1486.25 274.116 1486.25 Q268.306 1486.25 265.227 1481.67 Q262.172 1477.06 262.172 1468.33 Q262.172 1459.58 265.227 1455 Q268.306 1450.39 274.116 1450.39 Z" fill="#000000" fill-rule="evenodd" fill-opacity="1" /><path clip-path="url(#clip090)" d="M603.037 1481.64 L610.676 1481.64 L610.676 1455.28 L602.365 1456.95 L602.365 1452.69 L610.629 1451.02 L615.305 1451.02 L615.305 1481.64 L622.944 1481.64 L622.944 1485.58 L603.037 1485.58 L603.037 1481.64 Z" fill="#000000" fill-rule="evenodd" fill-opacity="1" /><path clip-path="url(#clip090)" d="M642.388 1454.1 Q638.777 1454.1 636.949 1457.66 Q635.143 1461.2 635.143 1468.33 Q635.143 1475.44 636.949 1479.01 Q638.777 1482.55 642.388 1482.55 Q646.023 1482.55 647.828 1479.01 Q649.657 1475.44 649.657 1468.33 Q649.657 1461.2 647.828 1457.66 Q646.023 1454.1 642.388 1454.1 M642.388 1450.39 Q648.199 1450.39 651.254 1455 Q654.333 1459.58 654.333 1468.33 Q654.333 1477.06 651.254 1481.67 Q648.199 1486.25 642.388 1486.25 Q636.578 1486.25 633.5 1481.67 Q630.444 1477.06 630.444 1468.33 Q630.444 1459.58 633.5 1455 Q636.578 1450.39 642.388 1450.39 Z" fill="#000000" fill-rule="evenodd" fill-opacity="1" /><path clip-path="url(#clip090)" d="M961.355 1481.64 L977.675 1481.64 L977.675 1485.58 L955.731 1485.58 L955.731 1481.64 Q958.393 1478.89 962.976 1474.26 Q967.582 1469.61 968.763 1468.27 Q971.008 1465.74 971.888 1464.01 Q972.791 1462.25 972.791 1460.56 Q972.791 1457.8 970.846 1456.07 Q968.925 1454.33 965.823 1454.33 Q963.624 1454.33 961.17 1455.09 Q958.74 1455.86 955.962 1457.41 L955.962 1452.69 Q958.786 1451.55 961.24 1450.97 Q963.693 1450.39 965.73 1450.39 Q971.101 1450.39 974.295 1453.08 Q977.49 1455.77 977.49 1460.26 Q977.49 1462.39 976.679 1464.31 Q975.892 1466.2 973.786 1468.8 Q973.207 1469.47 970.105 1472.69 Q967.004 1475.88 961.355 1481.64 Z" fill="#000000" fill-rule="evenodd" fill-opacity="1" /><path clip-path="url(#clip090)" d="M997.49 1454.1 Q993.878 1454.1 992.05 1457.66 Q990.244 1461.2 990.244 1468.33 Q990.244 1475.44 992.05 1479.01 Q993.878 1482.55 997.49 1482.55 Q1001.12 1482.55 1002.93 1479.01 Q1004.76 1475.44 1004.76 1468.33 Q1004.76 1461.2 1002.93 1457.66 Q1001.12 1454.1 997.49 1454.1 M997.49 1450.39 Q1003.3 1450.39 1006.36 1455 Q1009.43 1459.58 1009.43 1468.33 Q1009.43 1477.06 1006.36 1481.67 Q1003.3 1486.25 997.49 1486.25 Q991.679 1486.25 988.601 1481.67 Q985.545 1477.06 985.545 1468.33 Q985.545 1459.58 988.601 1455 Q991.679 1450.39 997.49 1450.39 Z" fill="#000000" fill-rule="evenodd" fill-opacity="1" /><path clip-path="url(#clip090)" d="M1325.66 1466.95 Q1329.01 1467.66 1330.89 1469.93 Q1332.79 1472.2 1332.79 1475.53 Q1332.79 1480.65 1329.27 1483.45 Q1325.75 1486.25 1319.27 1486.25 Q1317.09 1486.25 1314.78 1485.81 Q1312.49 1485.39 1310.03 1484.54 L1310.03 1480.02 Q1311.98 1481.16 1314.29 1481.74 Q1316.61 1482.32 1319.13 1482.32 Q1323.53 1482.32 1325.82 1480.58 Q1328.13 1478.84 1328.13 1475.53 Q1328.13 1472.48 1325.98 1470.77 Q1323.85 1469.03 1320.03 1469.03 L1316.01 1469.03 L1316.01 1465.19 L1320.22 1465.19 Q1323.67 1465.19 1325.5 1463.82 Q1327.32 1462.43 1327.32 1459.84 Q1327.32 1457.18 1325.43 1455.77 Q1323.55 1454.33 1320.03 1454.33 Q1318.11 1454.33 1315.91 1454.75 Q1313.71 1455.16 1311.07 1456.04 L1311.07 1451.88 Q1313.74 1451.14 1316.05 1450.77 Q1318.39 1450.39 1320.45 1450.39 Q1325.77 1450.39 1328.88 1452.83 Q1331.98 1455.23 1331.98 1459.35 Q1331.98 1462.22 1330.33 1464.21 Q1328.69 1466.18 1325.66 1466.95 Z" fill="#000000" fill-rule="evenodd" fill-opacity="1" /><path clip-path="url(#clip090)" d="M1351.65 1454.1 Q1348.04 1454.1 1346.21 1457.66 Q1344.41 1461.2 1344.41 1468.33 Q1344.41 1475.44 1346.21 1479.01 Q1348.04 1482.55 1351.65 1482.55 Q1355.29 1482.55 1357.09 1479.01 Q1358.92 1475.44 1358.92 1468.33 Q1358.92 1461.2 1357.09 1457.66 Q1355.29 1454.1 1351.65 1454.1 M1351.65 1450.39 Q1357.46 1450.39 1360.52 1455 Q1363.6 1459.58 1363.6 1468.33 Q1363.6 1477.06 1360.52 1481.67 Q1357.46 1486.25 1351.65 1486.25 Q1345.84 1486.25 1342.76 1481.67 Q1339.71 1477.06 1339.71 1468.33 Q1339.71 1459.58 1342.76 1455 Q1345.84 1450.39 1351.65 1450.39 Z" fill="#000000" fill-rule="evenodd" fill-opacity="1" /><path clip-path="url(#clip090)" d="M1679.22 1455.09 L1667.41 1473.54 L1679.22 1473.54 L1679.22 1455.09 M1677.99 1451.02 L1683.87 1451.02 L1683.87 1473.54 L1688.8 1473.54 L1688.8 1477.43 L1683.87 1477.43 L1683.87 1485.58 L1679.22 1485.58 L1679.22 1477.43 L1663.62 1477.43 L1663.62 1472.92 L1677.99 1451.02 Z" fill="#000000" fill-rule="evenodd" fill-opacity="1" /><path clip-path="url(#clip090)" d="M1706.53 1454.1 Q1702.92 1454.1 1701.09 1457.66 Q1699.29 1461.2 1699.29 1468.33 Q1699.29 1475.44 1701.09 1479.01 Q1702.92 1482.55 1706.53 1482.55 Q1710.17 1482.55 1711.97 1479.01 Q1713.8 1475.44 1713.8 1468.33 Q1713.8 1461.2 1711.97 1457.66 Q1710.17 1454.1 1706.53 1454.1 M1706.53 1450.39 Q1712.34 1450.39 1715.4 1455 Q1718.48 1459.58 1718.48 1468.33 Q1718.48 1477.06 1715.4 1481.67 Q1712.34 1486.25 1706.53 1486.25 Q1700.72 1486.25 1697.65 1481.67 Q1694.59 1477.06 1694.59 1468.33 Q1694.59 1459.58 1697.65 1455 Q1700.72 1450.39 1706.53 1450.39 Z" fill="#000000" fill-rule="evenodd" fill-opacity="1" /><path clip-path="url(#clip090)" d="M2019.98 1451.02 L2038.34 1451.02 L2038.34 1454.96 L2024.26 1454.96 L2024.26 1463.43 Q2025.28 1463.08 2026.3 1462.92 Q2027.32 1462.73 2028.34 1462.73 Q2034.12 1462.73 2037.5 1465.9 Q2040.88 1469.08 2040.88 1474.49 Q2040.88 1480.07 2037.41 1483.17 Q2033.94 1486.25 2027.62 1486.25 Q2025.44 1486.25 2023.18 1485.88 Q2020.93 1485.51 2018.52 1484.77 L2018.52 1480.07 Q2020.61 1481.2 2022.83 1481.76 Q2025.05 1482.32 2027.53 1482.32 Q2031.53 1482.32 2033.87 1480.21 Q2036.21 1478.1 2036.21 1474.49 Q2036.21 1470.88 2033.87 1468.77 Q2031.53 1466.67 2027.53 1466.67 Q2025.65 1466.67 2023.78 1467.08 Q2021.93 1467.5 2019.98 1468.38 L2019.98 1451.02 Z" fill="#000000" fill-rule="evenodd" fill-opacity="1" /><path clip-path="url(#clip090)" d="M2060.1 1454.1 Q2056.49 1454.1 2054.66 1457.66 Q2052.85 1461.2 2052.85 1468.33 Q2052.85 1475.44 2054.66 1479.01 Q2056.49 1482.55 2060.1 1482.55 Q2063.73 1482.55 2065.54 1479.01 Q2067.36 1475.44 2067.36 1468.33 Q2067.36 1461.2 2065.54 1457.66 Q2063.73 1454.1 2060.1 1454.1 M2060.1 1450.39 Q2065.91 1450.39 2068.96 1455 Q2072.04 1459.58 2072.04 1468.33 Q2072.04 1477.06 2068.96 1481.67 Q2065.91 1486.25 2060.1 1486.25 Q2054.29 1486.25 2051.21 1481.67 Q2048.15 1477.06 2048.15 1468.33 Q2048.15 1459.58 2051.21 1455 Q2054.29 1450.39 2060.1 1450.39 Z" fill="#000000" fill-rule="evenodd" fill-opacity="1" /><path clip-path="url(#clip090)" d="M895.642 1546.53 L895.642 1568.04 L889.785 1568.04 L889.785 1546.72 Q889.785 1541.66 887.812 1539.14 Q885.839 1536.63 881.892 1536.63 Q877.15 1536.63 874.412 1539.65 Q871.675 1542.68 871.675 1547.9 L871.675 1568.04 L865.787 1568.04 L865.787 1532.4 L871.675 1532.4 L871.675 1537.93 Q873.776 1534.72 876.608 1533.13 Q879.473 1531.54 883.197 1531.54 Q889.34 1531.54 892.491 1535.36 Q895.642 1539.14 895.642 1546.53 Z" fill="#000000" fill-rule="evenodd" fill-opacity="1" /><path clip-path="url(#clip090)" d="M921.137 1536.5 Q916.426 1536.5 913.689 1540.19 Q910.951 1543.85 910.951 1550.25 Q910.951 1556.65 913.657 1560.34 Q916.394 1564 921.137 1564 Q925.815 1564 928.553 1560.31 Q931.29 1556.62 931.29 1550.25 Q931.29 1543.92 928.553 1540.23 Q925.815 1536.5 921.137 1536.5 M921.137 1531.54 Q928.775 1531.54 933.136 1536.5 Q937.496 1541.47 937.496 1550.25 Q937.496 1559 933.136 1564 Q928.775 1568.97 921.137 1568.97 Q913.466 1568.97 909.105 1564 Q904.777 1559 904.777 1550.25 Q904.777 1541.47 909.105 1536.5 Q913.466 1531.54 921.137 1531.54 Z" fill="#000000" fill-rule="evenodd" fill-opacity="1" /><path clip-path="url(#clip090)" d="M967.861 1537.87 Q966.874 1537.3 965.696 1537.04 Q964.551 1536.76 963.15 1536.76 Q958.185 1536.76 955.511 1540 Q952.87 1543.22 952.87 1549.27 L952.87 1568.04 L946.981 1568.04 L946.981 1532.4 L952.87 1532.4 L952.87 1537.93 Q954.716 1534.69 957.676 1533.13 Q960.636 1531.54 964.869 1531.54 Q965.474 1531.54 966.206 1531.63 Q966.938 1531.7 967.829 1531.85 L967.861 1537.87 Z" fill="#000000" fill-rule="evenodd" fill-opacity="1" /><path clip-path="url(#clip090)" d="M1000.61 1539.24 Q1002.81 1535.29 1005.86 1533.41 Q1008.92 1531.54 1013.06 1531.54 Q1018.63 1531.54 1021.65 1535.45 Q1024.67 1539.33 1024.67 1546.53 L1024.67 1568.04 L1018.79 1568.04 L1018.79 1546.72 Q1018.79 1541.59 1016.97 1539.11 Q1015.16 1536.63 1011.43 1536.63 Q1006.88 1536.63 1004.24 1539.65 Q1001.6 1542.68 1001.6 1547.9 L1001.6 1568.04 L995.711 1568.04 L995.711 1546.72 Q995.711 1541.56 993.897 1539.11 Q992.082 1536.63 988.295 1536.63 Q983.807 1536.63 981.165 1539.68 Q978.523 1542.71 978.523 1547.9 L978.523 1568.04 L972.635 1568.04 L972.635 1532.4 L978.523 1532.4 L978.523 1537.93 Q980.529 1534.66 983.329 1533.1 Q986.13 1531.54 989.982 1531.54 Q993.865 1531.54 996.57 1533.51 Q999.307 1535.48 1000.61 1539.24 Z" fill="#000000" fill-rule="evenodd" fill-opacity="1" /><path clip-path="url(#clip090)" d="M1052.56 1550.12 Q1045.46 1550.12 1042.72 1551.75 Q1039.98 1553.37 1039.98 1557.29 Q1039.98 1560.4 1042.02 1562.25 Q1044.09 1564.07 1047.62 1564.07 Q1052.49 1564.07 1055.42 1560.63 Q1058.38 1557.16 1058.38 1551.43 L1058.38 1550.12 L1052.56 1550.12 M1064.24 1547.71 L1064.24 1568.04 L1058.38 1568.04 L1058.38 1562.63 Q1056.38 1565.88 1053.38 1567.44 Q1050.39 1568.97 1046.06 1568.97 Q1040.59 1568.97 1037.34 1565.91 Q1034.13 1562.82 1034.13 1557.67 Q1034.13 1551.65 1038.14 1548.6 Q1042.18 1545.54 1050.17 1545.54 L1058.38 1545.54 L1058.38 1544.97 Q1058.38 1540.93 1055.71 1538.73 Q1053.07 1536.5 1048.26 1536.5 Q1045.2 1536.5 1042.31 1537.23 Q1039.41 1537.97 1036.74 1539.43 L1036.74 1534.02 Q1039.95 1532.78 1042.98 1532.17 Q1046 1531.54 1048.86 1531.54 Q1056.6 1531.54 1060.42 1535.55 Q1064.24 1539.56 1064.24 1547.71 Z" fill="#000000" fill-rule="evenodd" fill-opacity="1" /><path clip-path="url(#clip090)" d="M1076.3 1518.52 L1082.16 1518.52 L1082.16 1568.04 L1076.3 1568.04 L1076.3 1518.52 Z" fill="#000000" fill-rule="evenodd" fill-opacity="1" /><path clip-path="url(#clip090)" d="M1094.41 1532.4 L1100.27 1532.4 L1100.27 1568.04 L1094.41 1568.04 L1094.41 1532.4 M1094.41 1518.52 L1100.27 1518.52 L1100.27 1525.93 L1094.41 1525.93 L1094.41 1518.52 Z" fill="#000000" fill-rule="evenodd" fill-opacity="1" /><path clip-path="url(#clip090)" d="M1109.98 1532.4 L1137.79 1532.4 L1137.79 1537.74 L1115.77 1563.37 L1137.79 1563.37 L1137.79 1568.04 L1109.18 1568.04 L1109.18 1562.7 L1131.2 1537.07 L1109.98 1537.07 L1109.98 1532.4 Z" fill="#000000" fill-rule="evenodd" fill-opacity="1" /><path clip-path="url(#clip090)" d="M1177.23 1548.76 L1177.23 1551.62 L1150.3 1551.62 Q1150.68 1557.67 1153.93 1560.85 Q1157.21 1564 1163.03 1564 Q1166.41 1564 1169.56 1563.17 Q1172.74 1562.35 1175.86 1560.69 L1175.86 1566.23 Q1172.71 1567.57 1169.4 1568.27 Q1166.09 1568.97 1162.68 1568.97 Q1154.15 1568.97 1149.16 1564 Q1144.19 1559.04 1144.19 1550.57 Q1144.19 1541.82 1148.9 1536.69 Q1153.64 1531.54 1161.66 1531.54 Q1168.86 1531.54 1173.03 1536.18 Q1177.23 1540.8 1177.23 1548.76 M1171.37 1547.04 Q1171.31 1542.23 1168.67 1539.37 Q1166.06 1536.5 1161.73 1536.5 Q1156.83 1536.5 1153.87 1539.27 Q1150.94 1542.04 1150.49 1547.07 L1171.37 1547.04 Z" fill="#000000" fill-rule="evenodd" fill-opacity="1" /><path clip-path="url(#clip090)" d="M1210.3 1537.81 L1210.3 1518.52 L1216.16 1518.52 L1216.16 1568.04 L1210.3 1568.04 L1210.3 1562.7 Q1208.45 1565.88 1205.62 1567.44 Q1202.82 1568.97 1198.87 1568.97 Q1192.41 1568.97 1188.34 1563.81 Q1184.29 1558.65 1184.29 1550.25 Q1184.29 1541.85 1188.34 1536.69 Q1192.41 1531.54 1198.87 1531.54 Q1202.82 1531.54 1205.62 1533.1 Q1208.45 1534.62 1210.3 1537.81 M1190.34 1550.25 Q1190.34 1556.71 1192.98 1560.4 Q1195.66 1564.07 1200.3 1564.07 Q1204.95 1564.07 1207.63 1560.4 Q1210.3 1556.71 1210.3 1550.25 Q1210.3 1543.79 1207.63 1540.13 Q1204.95 1536.44 1200.3 1536.44 Q1195.66 1536.44 1192.98 1540.13 Q1190.34 1543.79 1190.34 1550.25 Z" fill="#000000" fill-rule="evenodd" fill-opacity="1" /><path clip-path="url(#clip090)" d="M1271.66 1533.45 L1271.66 1538.98 Q1269.18 1537.71 1266.51 1537.07 Q1263.83 1536.44 1260.97 1536.44 Q1256.61 1536.44 1254.41 1537.77 Q1252.25 1539.11 1252.25 1541.79 Q1252.25 1543.82 1253.81 1545 Q1255.37 1546.15 1260.08 1547.2 L1262.08 1547.64 Q1268.32 1548.98 1270.93 1551.43 Q1273.57 1553.85 1273.57 1558.21 Q1273.57 1563.17 1269.63 1566.07 Q1265.71 1568.97 1258.84 1568.97 Q1255.97 1568.97 1252.85 1568.39 Q1249.77 1567.85 1246.33 1566.74 L1246.33 1560.69 Q1249.58 1562.38 1252.73 1563.24 Q1255.88 1564.07 1258.96 1564.07 Q1263.1 1564.07 1265.33 1562.66 Q1267.56 1561.23 1267.56 1558.65 Q1267.56 1556.27 1265.94 1554.99 Q1264.34 1553.72 1258.9 1552.54 L1256.86 1552.07 Q1251.42 1550.92 1249 1548.56 Q1246.58 1546.18 1246.58 1542.04 Q1246.58 1537.01 1250.15 1534.27 Q1253.71 1531.54 1260.27 1531.54 Q1263.52 1531.54 1266.38 1532.01 Q1269.25 1532.49 1271.66 1533.45 Z" fill="#000000" fill-rule="evenodd" fill-opacity="1" /><path clip-path="url(#clip090)" d="M1282.9 1532.4 L1288.76 1532.4 L1288.76 1568.04 L1282.9 1568.04 L1282.9 1532.4 M1282.9 1518.52 L1288.76 1518.52 L1288.76 1525.93 L1282.9 1525.93 L1282.9 1518.52 Z" fill="#000000" fill-rule="evenodd" fill-opacity="1" /><path clip-path="url(#clip090)" d="M1324.47 1549.81 Q1324.47 1543.44 1321.83 1539.94 Q1319.22 1536.44 1314.47 1536.44 Q1309.76 1536.44 1307.12 1539.94 Q1304.51 1543.44 1304.51 1549.81 Q1304.51 1556.14 1307.12 1559.64 Q1309.76 1563.14 1314.47 1563.14 Q1319.22 1563.14 1321.83 1559.64 Q1324.47 1556.14 1324.47 1549.81 M1330.32 1563.62 Q1330.32 1572.72 1326.28 1577.15 Q1322.24 1581.6 1313.9 1581.6 Q1310.81 1581.6 1308.08 1581.13 Q1305.34 1580.68 1302.76 1579.72 L1302.76 1574.03 Q1305.34 1575.43 1307.85 1576.1 Q1310.37 1576.76 1312.98 1576.76 Q1318.74 1576.76 1321.6 1573.74 Q1324.47 1570.75 1324.47 1564.67 L1324.47 1561.77 Q1322.65 1564.92 1319.82 1566.48 Q1316.99 1568.04 1313.04 1568.04 Q1306.48 1568.04 1302.47 1563.05 Q1298.46 1558.05 1298.46 1549.81 Q1298.46 1541.53 1302.47 1536.53 Q1306.48 1531.54 1313.04 1531.54 Q1316.99 1531.54 1319.82 1533.1 Q1322.65 1534.66 1324.47 1537.81 L1324.47 1532.4 L1330.32 1532.4 L1330.32 1563.62 Z" fill="#000000" fill-rule="evenodd" fill-opacity="1" /><path clip-path="url(#clip090)" d="M1372.02 1546.53 L1372.02 1568.04 L1366.16 1568.04 L1366.16 1546.72 Q1366.16 1541.66 1364.19 1539.14 Q1362.22 1536.63 1358.27 1536.63 Q1353.53 1536.63 1350.79 1539.65 Q1348.05 1542.68 1348.05 1547.9 L1348.05 1568.04 L1342.16 1568.04 L1342.16 1532.4 L1348.05 1532.4 L1348.05 1537.93 Q1350.15 1534.72 1352.99 1533.13 Q1355.85 1531.54 1359.57 1531.54 Q1365.72 1531.54 1368.87 1535.36 Q1372.02 1539.14 1372.02 1546.53 Z" fill="#000000" fill-rule="evenodd" fill-opacity="1" /><path clip-path="url(#clip090)" d="M1399.9 1550.12 Q1392.8 1550.12 1390.07 1551.75 Q1387.33 1553.37 1387.33 1557.29 Q1387.33 1560.4 1389.37 1562.25 Q1391.43 1564.07 1394.97 1564.07 Q1399.84 1564.07 1402.77 1560.63 Q1405.73 1557.16 1405.73 1551.43 L1405.73 1550.12 L1399.9 1550.12 M1411.58 1547.71 L1411.58 1568.04 L1405.73 1568.04 L1405.73 1562.63 Q1403.72 1565.88 1400.73 1567.44 Q1397.74 1568.97 1393.41 1568.97 Q1387.93 1568.97 1384.69 1565.91 Q1381.47 1562.82 1381.47 1557.67 Q1381.47 1551.65 1385.48 1548.6 Q1389.53 1545.54 1397.51 1545.54 L1405.73 1545.54 L1405.73 1544.97 Q1405.73 1540.93 1403.05 1538.73 Q1400.41 1536.5 1395.6 1536.5 Q1392.55 1536.5 1389.65 1537.23 Q1386.76 1537.97 1384.08 1539.43 L1384.08 1534.02 Q1387.3 1532.78 1390.32 1532.17 Q1393.34 1531.54 1396.21 1531.54 Q1403.94 1531.54 1407.76 1535.55 Q1411.58 1539.56 1411.58 1547.71 Z" fill="#000000" fill-rule="evenodd" fill-opacity="1" /><path clip-path="url(#clip090)" d="M1423.65 1518.52 L1429.5 1518.52 L1429.5 1568.04 L1423.65 1568.04 L1423.65 1518.52 Z" fill="#000000" fill-rule="evenodd" fill-opacity="1" /><path clip-path="url(#clip090)" d="M1462.48 1532.4 L1468.33 1532.4 L1468.33 1568.04 L1462.48 1568.04 L1462.48 1532.4 M1462.48 1518.52 L1468.33 1518.52 L1468.33 1525.93 L1462.48 1525.93 L1462.48 1518.52 Z" fill="#000000" fill-rule="evenodd" fill-opacity="1" /><path clip-path="url(#clip090)" d="M1510.22 1546.53 L1510.22 1568.04 L1504.36 1568.04 L1504.36 1546.72 Q1504.36 1541.66 1502.39 1539.14 Q1500.42 1536.63 1496.47 1536.63 Q1491.73 1536.63 1488.99 1539.65 Q1486.25 1542.68 1486.25 1547.9 L1486.25 1568.04 L1480.36 1568.04 L1480.36 1532.4 L1486.25 1532.4 L1486.25 1537.93 Q1488.35 1534.72 1491.19 1533.13 Q1494.05 1531.54 1497.77 1531.54 Q1503.92 1531.54 1507.07 1535.36 Q1510.22 1539.14 1510.22 1546.53 Z" fill="#000000" fill-rule="evenodd" fill-opacity="1" /><path clip-path="url(#clip090)" d="M1527.69 1522.27 L1527.69 1532.4 L1539.76 1532.4 L1539.76 1536.95 L1527.69 1536.95 L1527.69 1556.3 Q1527.69 1560.66 1528.87 1561.9 Q1530.08 1563.14 1533.74 1563.14 L1539.76 1563.14 L1539.76 1568.04 L1533.74 1568.04 Q1526.96 1568.04 1524.38 1565.53 Q1521.8 1562.98 1521.8 1556.3 L1521.8 1536.95 L1517.51 1536.95 L1517.51 1532.4 L1521.8 1532.4 L1521.8 1522.27 L1527.69 1522.27 Z" fill="#000000" fill-rule="evenodd" fill-opacity="1" /><path clip-path="url(#clip090)" d="M1577.95 1548.76 L1577.95 1551.62 L1551.02 1551.62 Q1551.41 1557.67 1554.65 1560.85 Q1557.93 1564 1563.75 1564 Q1567.13 1564 1570.28 1563.17 Q1573.46 1562.35 1576.58 1560.69 L1576.58 1566.23 Q1573.43 1567.57 1570.12 1568.27 Q1566.81 1568.97 1563.4 1568.97 Q1554.87 1568.97 1549.88 1564 Q1544.91 1559.04 1544.91 1550.57 Q1544.91 1541.82 1549.62 1536.69 Q1554.37 1531.54 1562.39 1531.54 Q1569.58 1531.54 1573.75 1536.18 Q1577.95 1540.8 1577.95 1548.76 M1572.09 1547.04 Q1572.03 1542.23 1569.39 1539.37 Q1566.78 1536.5 1562.45 1536.5 Q1557.55 1536.5 1554.59 1539.27 Q1551.66 1542.04 1551.21 1547.07 L1572.09 1547.04 Z" fill="#000000" fill-rule="evenodd" fill-opacity="1" /><path clip-path="url(#clip090)" d="M1617.19 1546.53 L1617.19 1568.04 L1611.34 1568.04 L1611.34 1546.72 Q1611.34 1541.66 1609.36 1539.14 Q1607.39 1536.63 1603.44 1536.63 Q1598.7 1536.63 1595.97 1539.65 Q1593.23 1542.68 1593.23 1547.9 L1593.23 1568.04 L1587.34 1568.04 L1587.34 1532.4 L1593.23 1532.4 L1593.23 1537.93 Q1595.33 1534.72 1598.16 1533.13 Q1601.03 1531.54 1604.75 1531.54 Q1610.89 1531.54 1614.04 1535.36 Q1617.19 1539.14 1617.19 1546.53 Z" fill="#000000" fill-rule="evenodd" fill-opacity="1" /><path clip-path="url(#clip090)" d="M1651.6 1533.45 L1651.6 1538.98 Q1649.12 1537.71 1646.45 1537.07 Q1643.77 1536.44 1640.91 1536.44 Q1636.55 1536.44 1634.35 1537.77 Q1632.19 1539.11 1632.19 1541.79 Q1632.19 1543.82 1633.75 1545 Q1635.31 1546.15 1640.02 1547.2 L1642.02 1547.64 Q1648.26 1548.98 1650.87 1551.43 Q1653.51 1553.85 1653.51 1558.21 Q1653.51 1563.17 1649.56 1566.07 Q1645.65 1568.97 1638.77 1568.97 Q1635.91 1568.97 1632.79 1568.39 Q1629.7 1567.85 1626.27 1566.74 L1626.27 1560.69 Q1629.51 1562.38 1632.66 1563.24 Q1635.81 1564.07 1638.9 1564.07 Q1643.04 1564.07 1645.27 1562.66 Q1647.5 1561.23 1647.5 1558.65 Q1647.5 1556.27 1645.87 1554.99 Q1644.28 1553.72 1638.84 1552.54 L1636.8 1552.07 Q1631.36 1550.92 1628.94 1548.56 Q1626.52 1546.18 1626.52 1542.04 Q1626.52 1537.01 1630.09 1534.27 Q1633.65 1531.54 1640.21 1531.54 Q1643.45 1531.54 1646.32 1532.01 Q1649.18 1532.49 1651.6 1533.45 Z" fill="#000000" fill-rule="evenodd" fill-opacity="1" /><path clip-path="url(#clip090)" d="M1662.84 1532.4 L1668.69 1532.4 L1668.69 1568.04 L1662.84 1568.04 L1662.84 1532.4 M1662.84 1518.52 L1668.69 1518.52 L1668.69 1525.93 L1662.84 1525.93 L1662.84 1518.52 Z" fill="#000000" fill-rule="evenodd" fill-opacity="1" /><path clip-path="url(#clip090)" d="M1686.74 1522.27 L1686.74 1532.4 L1698.8 1532.4 L1698.8 1536.95 L1686.74 1536.95 L1686.74 1556.3 Q1686.74 1560.66 1687.92 1561.9 Q1689.13 1563.14 1692.79 1563.14 L1698.8 1563.14 L1698.8 1568.04 L1692.79 1568.04 Q1686.01 1568.04 1683.43 1565.53 Q1680.85 1562.98 1680.85 1556.3 L1680.85 1536.95 L1676.55 1536.95 L1676.55 1532.4 L1680.85 1532.4 L1680.85 1522.27 L1686.74 1522.27 Z" fill="#000000" fill-rule="evenodd" fill-opacity="1" /><path clip-path="url(#clip090)" d="M1721.34 1571.35 Q1718.86 1577.72 1716.5 1579.66 Q1714.14 1581.6 1710.2 1581.6 L1705.52 1581.6 L1705.52 1576.7 L1708.96 1576.7 Q1711.38 1576.7 1712.71 1575.56 Q1714.05 1574.41 1715.67 1570.14 L1716.72 1567.47 L1702.3 1532.4 L1708.51 1532.4 L1719.65 1560.28 L1730.79 1532.4 L1737 1532.4 L1721.34 1571.35 Z" fill="#000000" fill-rule="evenodd" fill-opacity="1" /><polyline clip-path="url(#clip092)" style="stroke:#222255; stroke-linecap:butt; stroke-linejoin:round; stroke-width:2; stroke-opacity:0.1; fill:none" points="
  250.028,1384.24 2352.76,1384.24 
  "/>
<polyline clip-path="url(#clip092)" style="stroke:#222255; stroke-linecap:butt; stroke-linejoin:round; stroke-width:2; stroke-opacity:0.1; fill:none" points="
  250.028,1005.8 2352.76,1005.8 
  "/>
<polyline clip-path="url(#clip092)" style="stroke:#222255; stroke-linecap:butt; stroke-linejoin:round; stroke-width:2; stroke-opacity:0.1; fill:none" points="
  250.028,627.356 2352.76,627.356 
  "/>
<polyline clip-path="url(#clip092)" style="stroke:#222255; stroke-linecap:butt; stroke-linejoin:round; stroke-width:2; stroke-opacity:0.1; fill:none" points="
  250.028,248.915 2352.76,248.915 
  "/>
<polyline clip-path="url(#clip092)" style="stroke:#222255; stroke-linecap:butt; stroke-linejoin:round; stroke-width:2; stroke-opacity:0.05; fill:none" points="
  250.028,1308.55 2352.76,1308.55 
  "/>
<polyline clip-path="url(#clip092)" style="stroke:#222255; stroke-linecap:butt; stroke-linejoin:round; stroke-width:2; stroke-opacity:0.05; fill:none" points="
  250.028,1232.86 2352.76,1232.86 
  "/>
<polyline clip-path="url(#clip092)" style="stroke:#222255; stroke-linecap:butt; stroke-linejoin:round; stroke-width:2; stroke-opacity:0.05; fill:none" points="
  250.028,1157.17 2352.76,1157.17 
  "/>
<polyline clip-path="url(#clip092)" style="stroke:#222255; stroke-linecap:butt; stroke-linejoin:round; stroke-width:2; stroke-opacity:0.05; fill:none" points="
  250.028,1081.49 2352.76,1081.49 
  "/>
<polyline clip-path="url(#clip092)" style="stroke:#222255; stroke-linecap:butt; stroke-linejoin:round; stroke-width:2; stroke-opacity:0.05; fill:none" points="
  250.028,930.109 2352.76,930.109 
  "/>
<polyline clip-path="url(#clip092)" style="stroke:#222255; stroke-linecap:butt; stroke-linejoin:round; stroke-width:2; stroke-opacity:0.05; fill:none" points="
  250.028,854.421 2352.76,854.421 
  "/>
<polyline clip-path="url(#clip092)" style="stroke:#222255; stroke-linecap:butt; stroke-linejoin:round; stroke-width:2; stroke-opacity:0.05; fill:none" points="
  250.028,778.733 2352.76,778.733 
  "/>
<polyline clip-path="url(#clip092)" style="stroke:#222255; stroke-linecap:butt; stroke-linejoin:round; stroke-width:2; stroke-opacity:0.05; fill:none" points="
  250.028,703.044 2352.76,703.044 
  "/>
<polyline clip-path="url(#clip092)" style="stroke:#222255; stroke-linecap:butt; stroke-linejoin:round; stroke-width:2; stroke-opacity:0.05; fill:none" points="
  250.028,551.668 2352.76,551.668 
  "/>
<polyline clip-path="url(#clip092)" style="stroke:#222255; stroke-linecap:butt; stroke-linejoin:round; stroke-width:2; stroke-opacity:0.05; fill:none" points="
  250.028,475.98 2352.76,475.98 
  "/>
<polyline clip-path="url(#clip092)" style="stroke:#222255; stroke-linecap:butt; stroke-linejoin:round; stroke-width:2; stroke-opacity:0.05; fill:none" points="
  250.028,400.292 2352.76,400.292 
  "/>
<polyline clip-path="url(#clip092)" style="stroke:#222255; stroke-linecap:butt; stroke-linejoin:round; stroke-width:2; stroke-opacity:0.05; fill:none" points="
  250.028,324.603 2352.76,324.603 
  "/>
<polyline clip-path="url(#clip092)" style="stroke:#222255; stroke-linecap:butt; stroke-linejoin:round; stroke-width:2; stroke-opacity:0.05; fill:none" points="
  250.028,173.227 2352.76,173.227 
  "/>
<polyline clip-path="url(#clip092)" style="stroke:#222255; stroke-linecap:butt; stroke-linejoin:round; stroke-width:2; stroke-opacity:0.05; fill:none" points="
  250.028,97.5389 2352.76,97.5389 
  "/>
<polyline clip-path="url(#clip090)" style="stroke:#222255; stroke-linecap:butt; stroke-linejoin:round; stroke-width:4; stroke-opacity:0; fill:none" points="
  250.028,1384.24 268.926,1384.24 
  "/>
<polyline clip-path="url(#clip090)" style="stroke:#222255; stroke-linecap:butt; stroke-linejoin:round; stroke-width:4; stroke-opacity:0; fill:none" points="
  250.028,1005.8 268.926,1005.8 
  "/>
<polyline clip-path="url(#clip090)" style="stroke:#222255; stroke-linecap:butt; stroke-linejoin:round; stroke-width:4; stroke-opacity:0; fill:none" points="
  250.028,627.356 268.926,627.356 
  "/>
<polyline clip-path="url(#clip090)" style="stroke:#222255; stroke-linecap:butt; stroke-linejoin:round; stroke-width:4; stroke-opacity:0; fill:none" points="
  250.028,248.915 268.926,248.915 
  "/>
<polyline clip-path="url(#clip090)" style="stroke:#222255; stroke-linecap:butt; stroke-linejoin:round; stroke-width:4; stroke-opacity:0; fill:none" points="
  250.028,1308.55 259.477,1308.55 
  "/>
<polyline clip-path="url(#clip090)" style="stroke:#222255; stroke-linecap:butt; stroke-linejoin:round; stroke-width:4; stroke-opacity:0; fill:none" points="
  250.028,1232.86 259.477,1232.86 
  "/>
<polyline clip-path="url(#clip090)" style="stroke:#222255; stroke-linecap:butt; stroke-linejoin:round; stroke-width:4; stroke-opacity:0; fill:none" points="
  250.028,1157.17 259.477,1157.17 
  "/>
<polyline clip-path="url(#clip090)" style="stroke:#222255; stroke-linecap:butt; stroke-linejoin:round; stroke-width:4; stroke-opacity:0; fill:none" points="
  250.028,1081.49 259.477,1081.49 
  "/>
<polyline clip-path="url(#clip090)" style="stroke:#222255; stroke-linecap:butt; stroke-linejoin:round; stroke-width:4; stroke-opacity:0; fill:none" points="
  250.028,930.109 259.477,930.109 
  "/>
<polyline clip-path="url(#clip090)" style="stroke:#222255; stroke-linecap:butt; stroke-linejoin:round; stroke-width:4; stroke-opacity:0; fill:none" points="
  250.028,854.421 259.477,854.421 
  "/>
<polyline clip-path="url(#clip090)" style="stroke:#222255; stroke-linecap:butt; stroke-linejoin:round; stroke-width:4; stroke-opacity:0; fill:none" points="
  250.028,778.733 259.477,778.733 
  "/>
<polyline clip-path="url(#clip090)" style="stroke:#222255; stroke-linecap:butt; stroke-linejoin:round; stroke-width:4; stroke-opacity:0; fill:none" points="
  250.028,703.044 259.477,703.044 
  "/>
<polyline clip-path="url(#clip090)" style="stroke:#222255; stroke-linecap:butt; stroke-linejoin:round; stroke-width:4; stroke-opacity:0; fill:none" points="
  250.028,551.668 259.477,551.668 
  "/>
<polyline clip-path="url(#clip090)" style="stroke:#222255; stroke-linecap:butt; stroke-linejoin:round; stroke-width:4; stroke-opacity:0; fill:none" points="
  250.028,475.98 259.477,475.98 
  "/>
<polyline clip-path="url(#clip090)" style="stroke:#222255; stroke-linecap:butt; stroke-linejoin:round; stroke-width:4; stroke-opacity:0; fill:none" points="
  250.028,400.292 259.477,400.292 
  "/>
<polyline clip-path="url(#clip090)" style="stroke:#222255; stroke-linecap:butt; stroke-linejoin:round; stroke-width:4; stroke-opacity:0; fill:none" points="
  250.028,324.603 259.477,324.603 
  "/>
<polyline clip-path="url(#clip090)" style="stroke:#222255; stroke-linecap:butt; stroke-linejoin:round; stroke-width:4; stroke-opacity:0; fill:none" points="
  250.028,173.227 259.477,173.227 
  "/>
<polyline clip-path="url(#clip090)" style="stroke:#222255; stroke-linecap:butt; stroke-linejoin:round; stroke-width:4; stroke-opacity:0; fill:none" points="
  250.028,97.5389 259.477,97.5389 
  "/>
<path clip-path="url(#clip090)" d="M126.691 1370.04 Q123.08 1370.04 121.251 1373.6 Q119.445 1377.14 119.445 1384.27 Q119.445 1391.38 121.251 1394.94 Q123.08 1398.49 126.691 1398.49 Q130.325 1398.49 132.13 1394.94 Q133.959 1391.38 133.959 1384.27 Q133.959 1377.14 132.13 1373.6 Q130.325 1370.04 126.691 1370.04 M126.691 1366.33 Q132.501 1366.33 135.556 1370.94 Q138.635 1375.52 138.635 1384.27 Q138.635 1393 135.556 1397.61 Q132.501 1402.19 126.691 1402.19 Q120.88 1402.19 117.802 1397.61 Q114.746 1393 114.746 1384.27 Q114.746 1375.52 117.802 1370.94 Q120.88 1366.33 126.691 1366.33 Z" fill="#000000" fill-rule="evenodd" fill-opacity="1" /><path clip-path="url(#clip090)" d="M146.853 1395.64 L151.737 1395.64 L151.737 1401.52 L146.853 1401.52 L146.853 1395.64 Z" fill="#000000" fill-rule="evenodd" fill-opacity="1" /><path clip-path="url(#clip090)" d="M171.922 1370.04 Q168.311 1370.04 166.482 1373.6 Q164.677 1377.14 164.677 1384.27 Q164.677 1391.38 166.482 1394.94 Q168.311 1398.49 171.922 1398.49 Q175.556 1398.49 177.362 1394.94 Q179.19 1391.38 179.19 1384.27 Q179.19 1377.14 177.362 1373.6 Q175.556 1370.04 171.922 1370.04 M171.922 1366.33 Q177.732 1366.33 180.788 1370.94 Q183.866 1375.52 183.866 1384.27 Q183.866 1393 180.788 1397.61 Q177.732 1402.19 171.922 1402.19 Q166.112 1402.19 163.033 1397.61 Q159.978 1393 159.978 1384.27 Q159.978 1375.52 163.033 1370.94 Q166.112 1366.33 171.922 1366.33 Z" fill="#000000" fill-rule="evenodd" fill-opacity="1" /><path clip-path="url(#clip090)" d="M202.084 1370.04 Q198.473 1370.04 196.644 1373.6 Q194.838 1377.14 194.838 1384.27 Q194.838 1391.38 196.644 1394.94 Q198.473 1398.49 202.084 1398.49 Q205.718 1398.49 207.524 1394.94 Q209.352 1391.38 209.352 1384.27 Q209.352 1377.14 207.524 1373.6 Q205.718 1370.04 202.084 1370.04 M202.084 1366.33 Q207.894 1366.33 210.949 1370.94 Q214.028 1375.52 214.028 1384.27 Q214.028 1393 210.949 1397.61 Q207.894 1402.19 202.084 1402.19 Q196.274 1402.19 193.195 1397.61 Q190.139 1393 190.139 1384.27 Q190.139 1375.52 193.195 1370.94 Q196.274 1366.33 202.084 1366.33 Z" fill="#000000" fill-rule="evenodd" fill-opacity="1" /><path clip-path="url(#clip090)" d="M128.288 991.596 Q124.677 991.596 122.848 995.161 Q121.043 998.702 121.043 1005.83 Q121.043 1012.94 122.848 1016.5 Q124.677 1020.04 128.288 1020.04 Q131.922 1020.04 133.728 1016.5 Q135.556 1012.94 135.556 1005.83 Q135.556 998.702 133.728 995.161 Q131.922 991.596 128.288 991.596 M128.288 987.892 Q134.098 987.892 137.154 992.499 Q140.232 997.082 140.232 1005.83 Q140.232 1014.56 137.154 1019.17 Q134.098 1023.75 128.288 1023.75 Q122.478 1023.75 119.399 1019.17 Q116.343 1014.56 116.343 1005.83 Q116.343 997.082 119.399 992.499 Q122.478 987.892 128.288 987.892 Z" fill="#000000" fill-rule="evenodd" fill-opacity="1" /><path clip-path="url(#clip090)" d="M148.45 1017.2 L153.334 1017.2 L153.334 1023.08 L148.45 1023.08 L148.45 1017.2 Z" fill="#000000" fill-rule="evenodd" fill-opacity="1" /><path clip-path="url(#clip090)" d="M173.519 991.596 Q169.908 991.596 168.079 995.161 Q166.274 998.702 166.274 1005.83 Q166.274 1012.94 168.079 1016.5 Q169.908 1020.04 173.519 1020.04 Q177.153 1020.04 178.959 1016.5 Q180.788 1012.94 180.788 1005.83 Q180.788 998.702 178.959 995.161 Q177.153 991.596 173.519 991.596 M173.519 987.892 Q179.329 987.892 182.385 992.499 Q185.463 997.082 185.463 1005.83 Q185.463 1014.56 182.385 1019.17 Q179.329 1023.75 173.519 1023.75 Q167.709 1023.75 164.63 1019.17 Q161.575 1014.56 161.575 1005.83 Q161.575 997.082 164.63 992.499 Q167.709 987.892 173.519 987.892 Z" fill="#000000" fill-rule="evenodd" fill-opacity="1" /><path clip-path="url(#clip090)" d="M197.709 1019.14 L214.028 1019.14 L214.028 1023.08 L192.084 1023.08 L192.084 1019.14 Q194.746 1016.39 199.329 1011.76 Q203.936 1007.11 205.116 1005.76 Q207.362 1003.24 208.241 1001.5 Q209.144 999.744 209.144 998.054 Q209.144 995.3 207.199 993.564 Q205.278 991.827 202.176 991.827 Q199.977 991.827 197.524 992.591 Q195.093 993.355 192.315 994.906 L192.315 990.184 Q195.139 989.05 197.593 988.471 Q200.047 987.892 202.084 987.892 Q207.454 987.892 210.649 990.577 Q213.843 993.263 213.843 997.753 Q213.843 999.883 213.033 1001.8 Q212.246 1003.7 210.139 1006.29 Q209.561 1006.97 206.459 1010.18 Q203.357 1013.38 197.709 1019.14 Z" fill="#000000" fill-rule="evenodd" fill-opacity="1" /><path clip-path="url(#clip090)" d="M126.205 613.155 Q122.593 613.155 120.765 616.72 Q118.959 620.261 118.959 627.391 Q118.959 634.497 120.765 638.062 Q122.593 641.604 126.205 641.604 Q129.839 641.604 131.644 638.062 Q133.473 634.497 133.473 627.391 Q133.473 620.261 131.644 616.72 Q129.839 613.155 126.205 613.155 M126.205 609.451 Q132.015 609.451 135.07 614.058 Q138.149 618.641 138.149 627.391 Q138.149 636.118 135.07 640.724 Q132.015 645.308 126.205 645.308 Q120.394 645.308 117.316 640.724 Q114.26 636.118 114.26 627.391 Q114.26 618.641 117.316 614.058 Q120.394 609.451 126.205 609.451 Z" fill="#000000" fill-rule="evenodd" fill-opacity="1" /><path clip-path="url(#clip090)" d="M146.366 638.757 L151.251 638.757 L151.251 644.636 L146.366 644.636 L146.366 638.757 Z" fill="#000000" fill-rule="evenodd" fill-opacity="1" /><path clip-path="url(#clip090)" d="M171.436 613.155 Q167.825 613.155 165.996 616.72 Q164.19 620.261 164.19 627.391 Q164.19 634.497 165.996 638.062 Q167.825 641.604 171.436 641.604 Q175.07 641.604 176.876 638.062 Q178.704 634.497 178.704 627.391 Q178.704 620.261 176.876 616.72 Q175.07 613.155 171.436 613.155 M171.436 609.451 Q177.246 609.451 180.301 614.058 Q183.38 618.641 183.38 627.391 Q183.38 636.118 180.301 640.724 Q177.246 645.308 171.436 645.308 Q165.626 645.308 162.547 640.724 Q159.491 636.118 159.491 627.391 Q159.491 618.641 162.547 614.058 Q165.626 609.451 171.436 609.451 Z" fill="#000000" fill-rule="evenodd" fill-opacity="1" /><path clip-path="url(#clip090)" d="M204.445 614.15 L192.639 632.599 L204.445 632.599 L204.445 614.15 M203.218 610.076 L209.098 610.076 L209.098 632.599 L214.028 632.599 L214.028 636.488 L209.098 636.488 L209.098 644.636 L204.445 644.636 L204.445 636.488 L188.843 636.488 L188.843 631.974 L203.218 610.076 Z" fill="#000000" fill-rule="evenodd" fill-opacity="1" /><path clip-path="url(#clip090)" d="M126.529 234.714 Q122.918 234.714 121.089 238.279 Q119.283 241.82 119.283 248.95 Q119.283 256.056 121.089 259.621 Q122.918 263.163 126.529 263.163 Q130.163 263.163 131.968 259.621 Q133.797 256.056 133.797 248.95 Q133.797 241.82 131.968 238.279 Q130.163 234.714 126.529 234.714 M126.529 231.01 Q132.339 231.01 135.394 235.617 Q138.473 240.2 138.473 248.95 Q138.473 257.677 135.394 262.283 Q132.339 266.867 126.529 266.867 Q120.718 266.867 117.64 262.283 Q114.584 257.677 114.584 248.95 Q114.584 240.2 117.64 235.617 Q120.718 231.01 126.529 231.01 Z" fill="#000000" fill-rule="evenodd" fill-opacity="1" /><path clip-path="url(#clip090)" d="M146.691 260.316 L151.575 260.316 L151.575 266.195 L146.691 266.195 L146.691 260.316 Z" fill="#000000" fill-rule="evenodd" fill-opacity="1" /><path clip-path="url(#clip090)" d="M171.76 234.714 Q168.149 234.714 166.32 238.279 Q164.515 241.82 164.515 248.95 Q164.515 256.056 166.32 259.621 Q168.149 263.163 171.76 263.163 Q175.394 263.163 177.2 259.621 Q179.028 256.056 179.028 248.95 Q179.028 241.82 177.2 238.279 Q175.394 234.714 171.76 234.714 M171.76 231.01 Q177.57 231.01 180.626 235.617 Q183.704 240.2 183.704 248.95 Q183.704 257.677 180.626 262.283 Q177.57 266.867 171.76 266.867 Q165.95 266.867 162.871 262.283 Q159.815 257.677 159.815 248.95 Q159.815 240.2 162.871 235.617 Q165.95 231.01 171.76 231.01 Z" fill="#000000" fill-rule="evenodd" fill-opacity="1" /><path clip-path="url(#clip090)" d="M202.5 247.052 Q199.352 247.052 197.5 249.205 Q195.672 251.357 195.672 255.107 Q195.672 258.834 197.5 261.01 Q199.352 263.163 202.5 263.163 Q205.649 263.163 207.477 261.01 Q209.329 258.834 209.329 255.107 Q209.329 251.357 207.477 249.205 Q205.649 247.052 202.5 247.052 M211.783 232.399 L211.783 236.658 Q210.024 235.825 208.218 235.385 Q206.436 234.945 204.676 234.945 Q200.047 234.945 197.593 238.07 Q195.163 241.195 194.815 247.515 Q196.181 245.501 198.241 244.436 Q200.301 243.348 202.778 243.348 Q207.987 243.348 210.996 246.519 Q214.028 249.668 214.028 255.107 Q214.028 260.431 210.88 263.649 Q207.732 266.867 202.5 266.867 Q196.505 266.867 193.334 262.283 Q190.163 257.677 190.163 248.95 Q190.163 240.756 194.051 235.895 Q197.94 231.01 204.491 231.01 Q206.25 231.01 208.033 231.358 Q209.838 231.705 211.783 232.399 Z" fill="#000000" fill-rule="evenodd" fill-opacity="1" /><path clip-path="url(#clip090)" d="M14.479 874.271 L19.3487 874.271 L19.3487 879.873 Q19.3487 883.024 20.6219 884.265 Q21.895 885.474 25.2052 885.474 L28.3562 885.474 L28.3562 875.83 L32.9077 875.83 L32.9077 885.474 L64.0042 885.474 L64.0042 891.363 L32.9077 891.363 L32.9077 896.965 L28.3562 896.965 L28.3562 891.363 L25.8736 891.363 Q19.9216 891.363 17.2162 888.594 Q14.479 885.825 14.479 879.809 L14.479 874.271 Z" fill="#000000" fill-rule="evenodd" fill-opacity="1" /><path clip-path="url(#clip090)" d="M33.8307 848.713 Q33.2578 849.699 33.0032 850.877 Q32.7167 852.023 32.7167 853.423 Q32.7167 858.388 35.9632 861.062 Q39.1779 863.704 45.2253 863.704 L64.0042 863.704 L64.0042 869.592 L28.3562 869.592 L28.3562 863.704 L33.8944 863.704 Q30.6479 861.858 29.0883 858.898 Q27.4968 855.938 27.4968 851.704 Q27.4968 851.1 27.5923 850.368 Q27.656 849.636 27.8151 848.744 L33.8307 848.713 Z" fill="#000000" fill-rule="evenodd" fill-opacity="1" /><path clip-path="url(#clip090)" d="M44.7161 813.51 L47.5806 813.51 L47.5806 840.437 Q53.6281 840.055 56.8109 836.809 Q59.9619 833.53 59.9619 827.706 Q59.9619 824.332 59.1344 821.181 Q58.3069 817.998 56.6518 814.879 L62.1899 814.879 Q63.5267 818.03 64.227 821.34 Q64.9272 824.65 64.9272 828.056 Q64.9272 836.586 59.9619 841.583 Q54.9967 846.548 46.5303 846.548 Q37.7774 846.548 32.6531 841.838 Q27.4968 837.095 27.4968 829.074 Q27.4968 821.881 32.1438 817.712 Q36.7589 813.51 44.7161 813.51 M42.9973 819.367 Q38.1912 819.43 35.3266 822.072 Q32.4621 824.682 32.4621 829.011 Q32.4621 833.912 35.2312 836.872 Q38.0002 839.801 43.0292 840.246 L42.9973 819.367 Z" fill="#000000" fill-rule="evenodd" fill-opacity="1" /><path clip-path="url(#clip090)" d="M46.212 800.397 Q52.6732 800.397 56.3653 797.755 Q60.0256 795.081 60.0256 790.434 Q60.0256 785.788 56.3653 783.114 Q52.6732 780.44 46.212 780.44 Q39.7508 780.44 36.0905 783.114 Q32.3984 785.788 32.3984 790.434 Q32.3984 795.081 36.0905 797.755 Q39.7508 800.397 46.212 800.397 M58.657 780.44 Q61.8398 782.286 63.3994 785.119 Q64.9272 787.92 64.9272 791.867 Q64.9272 798.328 59.771 802.402 Q54.6147 806.444 46.212 806.444 Q37.8093 806.444 32.6531 802.402 Q27.4968 798.328 27.4968 791.867 Q27.4968 787.92 29.0564 785.119 Q30.5842 782.286 33.7671 780.44 L28.3562 780.44 L28.3562 774.584 L77.5631 774.584 L77.5631 780.44 L58.657 780.44 Z" fill="#000000" fill-rule="evenodd" fill-opacity="1" /><path clip-path="url(#clip090)" d="M49.9359 763.126 L28.3562 763.126 L28.3562 757.269 L49.7131 757.269 Q54.7739 757.269 57.3202 755.296 Q59.8346 753.322 59.8346 749.376 Q59.8346 744.633 56.8109 741.896 Q53.7872 739.127 48.5673 739.127 L28.3562 739.127 L28.3562 733.27 L64.0042 733.27 L64.0042 739.127 L58.5296 739.127 Q61.7762 741.259 63.3676 744.092 Q64.9272 746.893 64.9272 750.617 Q64.9272 756.76 61.1078 759.943 Q57.2883 763.126 49.9359 763.126 M27.4968 748.389 L27.4968 748.389 Z" fill="#000000" fill-rule="evenodd" fill-opacity="1" /><path clip-path="url(#clip090)" d="M44.7161 690.716 L47.5806 690.716 L47.5806 717.643 Q53.6281 717.261 56.8109 714.014 Q59.9619 710.736 59.9619 704.911 Q59.9619 701.537 59.1344 698.386 Q58.3069 695.204 56.6518 692.084 L62.1899 692.084 Q63.5267 695.235 64.227 698.545 Q64.9272 701.856 64.9272 705.261 Q64.9272 713.791 59.9619 718.788 Q54.9967 723.754 46.5303 723.754 Q37.7774 723.754 32.6531 719.043 Q27.4968 714.301 27.4968 706.28 Q27.4968 699.087 32.1438 694.917 Q36.7589 690.716 44.7161 690.716 M42.9973 696.572 Q38.1912 696.636 35.3266 699.278 Q32.4621 701.887 32.4621 706.216 Q32.4621 711.118 35.2312 714.078 Q38.0002 717.006 43.0292 717.452 L42.9973 696.572 Z" fill="#000000" fill-rule="evenodd" fill-opacity="1" /><path clip-path="url(#clip090)" d="M42.4881 651.471 L64.0042 651.471 L64.0042 657.328 L42.679 657.328 Q37.6183 657.328 35.1038 659.301 Q32.5894 661.274 32.5894 665.221 Q32.5894 669.963 35.6131 672.701 Q38.6368 675.438 43.8567 675.438 L64.0042 675.438 L64.0042 681.326 L28.3562 681.326 L28.3562 675.438 L33.8944 675.438 Q30.6797 673.337 29.0883 670.505 Q27.4968 667.64 27.4968 663.916 Q27.4968 657.773 31.3163 654.622 Q35.1038 651.471 42.4881 651.471 Z" fill="#000000" fill-rule="evenodd" fill-opacity="1" /><path clip-path="url(#clip090)" d="M29.7248 614.136 L35.1993 614.136 Q33.8307 616.619 33.1623 619.133 Q32.4621 621.616 32.4621 624.162 Q32.4621 629.86 36.0905 633.011 Q39.6872 636.162 46.212 636.162 Q52.7369 636.162 56.3653 633.011 Q59.9619 629.86 59.9619 624.162 Q59.9619 621.616 59.2935 619.133 Q58.5933 616.619 57.2247 614.136 L62.6355 614.136 Q63.7814 616.587 64.3543 619.229 Q64.9272 621.839 64.9272 624.799 Q64.9272 632.851 59.8664 637.594 Q54.8057 642.336 46.212 642.336 Q37.491 642.336 32.4939 637.562 Q27.4968 632.756 27.4968 624.417 Q27.4968 621.711 28.0697 619.133 Q28.6108 616.555 29.7248 614.136 Z" fill="#000000" fill-rule="evenodd" fill-opacity="1" /><path clip-path="url(#clip090)" d="M67.3143 589.119 Q73.68 591.602 75.6216 593.957 Q77.5631 596.312 77.5631 600.259 L77.5631 604.938 L72.6615 604.938 L72.6615 601.5 Q72.6615 599.081 71.5157 597.745 Q70.3699 596.408 66.1048 594.784 L63.4312 593.734 L28.3562 608.152 L28.3562 601.946 L56.238 590.806 L28.3562 579.666 L28.3562 573.459 L67.3143 589.119 Z" fill="#000000" fill-rule="evenodd" fill-opacity="1" /><circle clip-path="url(#clip092)" cx="309.539" cy="1319.9" r="21.6" fill="#ee7733" fill-rule="evenodd" fill-opacity="1" stroke="#000000" stroke-opacity="1" stroke-width="0"/>
<circle clip-path="url(#clip092)" cx="344.963" cy="1344.5" r="21.6" fill="#ee7733" fill-rule="evenodd" fill-opacity="1" stroke="#000000" stroke-opacity="1" stroke-width="0"/>
<circle clip-path="url(#clip092)" cx="380.386" cy="1333.15" r="21.6" fill="#ee7733" fill-rule="evenodd" fill-opacity="1" stroke="#000000" stroke-opacity="1" stroke-width="0"/>
<circle clip-path="url(#clip092)" cx="415.809" cy="1338.83" r="21.6" fill="#ee7733" fill-rule="evenodd" fill-opacity="1" stroke="#000000" stroke-opacity="1" stroke-width="0"/>
<circle clip-path="url(#clip092)" cx="451.233" cy="1302.87" r="21.6" fill="#ee7733" fill-rule="evenodd" fill-opacity="1" stroke="#000000" stroke-opacity="1" stroke-width="0"/>
<circle clip-path="url(#clip092)" cx="486.656" cy="1306.66" r="21.6" fill="#ee7733" fill-rule="evenodd" fill-opacity="1" stroke="#000000" stroke-opacity="1" stroke-width="0"/>
<circle clip-path="url(#clip092)" cx="522.079" cy="1283.95" r="21.6" fill="#ee7733" fill-rule="evenodd" fill-opacity="1" stroke="#000000" stroke-opacity="1" stroke-width="0"/>
<circle clip-path="url(#clip092)" cx="557.502" cy="1248" r="21.6" fill="#ee7733" fill-rule="evenodd" fill-opacity="1" stroke="#000000" stroke-opacity="1" stroke-width="0"/>
<circle clip-path="url(#clip092)" cx="592.926" cy="1242.32" r="21.6" fill="#ee7733" fill-rule="evenodd" fill-opacity="1" stroke="#000000" stroke-opacity="1" stroke-width="0"/>
<circle clip-path="url(#clip092)" cx="628.349" cy="1230.97" r="21.6" fill="#ee7733" fill-rule="evenodd" fill-opacity="1" stroke="#000000" stroke-opacity="1" stroke-width="0"/>
<circle clip-path="url(#clip092)" cx="663.772" cy="1143.93" r="21.6" fill="#ee7733" fill-rule="evenodd" fill-opacity="1" stroke="#000000" stroke-opacity="1" stroke-width="0"/>
<circle clip-path="url(#clip092)" cx="699.196" cy="1153.39" r="21.6" fill="#ee7733" fill-rule="evenodd" fill-opacity="1" stroke="#000000" stroke-opacity="1" stroke-width="0"/>
<circle clip-path="url(#clip092)" cx="734.619" cy="1083.38" r="21.6" fill="#ee7733" fill-rule="evenodd" fill-opacity="1" stroke="#000000" stroke-opacity="1" stroke-width="0"/>
<circle clip-path="url(#clip092)" cx="770.042" cy="1036.07" r="21.6" fill="#ee7733" fill-rule="evenodd" fill-opacity="1" stroke="#000000" stroke-opacity="1" stroke-width="0"/>
<circle clip-path="url(#clip092)" cx="805.466" cy="926.325" r="21.6" fill="#ee7733" fill-rule="evenodd" fill-opacity="1" stroke="#000000" stroke-opacity="1" stroke-width="0"/>
<circle clip-path="url(#clip092)" cx="840.889" cy="933.893" r="21.6" fill="#ee7733" fill-rule="evenodd" fill-opacity="1" stroke="#000000" stroke-opacity="1" stroke-width="0"/>
<circle clip-path="url(#clip092)" cx="876.312" cy="769.272" r="21.6" fill="#ee7733" fill-rule="evenodd" fill-opacity="1" stroke="#000000" stroke-opacity="1" stroke-width="0"/>
<circle clip-path="url(#clip092)" cx="911.736" cy="680.338" r="21.6" fill="#ee7733" fill-rule="evenodd" fill-opacity="1" stroke="#000000" stroke-opacity="1" stroke-width="0"/>
<circle clip-path="url(#clip092)" cx="947.159" cy="466.519" r="21.6" fill="#ee7733" fill-rule="evenodd" fill-opacity="1" stroke="#000000" stroke-opacity="1" stroke-width="0"/>
<circle clip-path="url(#clip092)" cx="982.582" cy="373.801" r="21.6" fill="#ee7733" fill-rule="evenodd" fill-opacity="1" stroke="#000000" stroke-opacity="1" stroke-width="0"/>
<circle clip-path="url(#clip092)" cx="1018.01" cy="262.161" r="21.6" fill="#ee7733" fill-rule="evenodd" fill-opacity="1" stroke="#000000" stroke-opacity="1" stroke-width="0"/>
<circle clip-path="url(#clip092)" cx="1053.43" cy="182.688" r="21.6" fill="#ee7733" fill-rule="evenodd" fill-opacity="1" stroke="#000000" stroke-opacity="1" stroke-width="0"/>
<circle clip-path="url(#clip092)" cx="1088.85" cy="144.844" r="21.6" fill="#ee7733" fill-rule="evenodd" fill-opacity="1" stroke="#000000" stroke-opacity="1" stroke-width="0"/>
<circle clip-path="url(#clip092)" cx="1124.28" cy="86.1857" r="21.6" fill="#ee7733" fill-rule="evenodd" fill-opacity="1" stroke="#000000" stroke-opacity="1" stroke-width="0"/>
<circle clip-path="url(#clip092)" cx="1159.7" cy="97.5389" r="21.6" fill="#ee7733" fill-rule="evenodd" fill-opacity="1" stroke="#000000" stroke-opacity="1" stroke-width="0"/>
<circle clip-path="url(#clip092)" cx="1195.12" cy="243.239" r="21.6" fill="#ee7733" fill-rule="evenodd" fill-opacity="1" stroke="#000000" stroke-opacity="1" stroke-width="0"/>
<circle clip-path="url(#clip092)" cx="1230.55" cy="300.005" r="21.6" fill="#ee7733" fill-rule="evenodd" fill-opacity="1" stroke="#000000" stroke-opacity="1" stroke-width="0"/>
<circle clip-path="url(#clip092)" cx="1265.97" cy="481.657" r="21.6" fill="#ee7733" fill-rule="evenodd" fill-opacity="1" stroke="#000000" stroke-opacity="1" stroke-width="0"/>
<circle clip-path="url(#clip092)" cx="1301.39" cy="540.315" r="21.6" fill="#ee7733" fill-rule="evenodd" fill-opacity="1" stroke="#000000" stroke-opacity="1" stroke-width="0"/>
<circle clip-path="url(#clip092)" cx="1336.82" cy="733.32" r="21.6" fill="#ee7733" fill-rule="evenodd" fill-opacity="1" stroke="#000000" stroke-opacity="1" stroke-width="0"/>
<circle clip-path="url(#clip092)" cx="1372.24" cy="810.9" r="21.6" fill="#ee7733" fill-rule="evenodd" fill-opacity="1" stroke="#000000" stroke-opacity="1" stroke-width="0"/>
<circle clip-path="url(#clip092)" cx="1407.66" cy="932.001" r="21.6" fill="#ee7733" fill-rule="evenodd" fill-opacity="1" stroke="#000000" stroke-opacity="1" stroke-width="0"/>
<circle clip-path="url(#clip092)" cx="1443.09" cy="1096.62" r="21.6" fill="#ee7733" fill-rule="evenodd" fill-opacity="1" stroke="#000000" stroke-opacity="1" stroke-width="0"/>
<circle clip-path="url(#clip092)" cx="1478.51" cy="1174.2" r="21.6" fill="#ee7733" fill-rule="evenodd" fill-opacity="1" stroke="#000000" stroke-opacity="1" stroke-width="0"/>
<circle clip-path="url(#clip092)" cx="1513.93" cy="1210.16" r="21.6" fill="#ee7733" fill-rule="evenodd" fill-opacity="1" stroke="#000000" stroke-opacity="1" stroke-width="0"/>
<circle clip-path="url(#clip092)" cx="1549.36" cy="1265.03" r="21.6" fill="#ee7733" fill-rule="evenodd" fill-opacity="1" stroke="#000000" stroke-opacity="1" stroke-width="0"/>
<circle clip-path="url(#clip092)" cx="1584.78" cy="1310.44" r="21.6" fill="#ee7733" fill-rule="evenodd" fill-opacity="1" stroke="#000000" stroke-opacity="1" stroke-width="0"/>
<circle clip-path="url(#clip092)" cx="1620.2" cy="1333.15" r="21.6" fill="#ee7733" fill-rule="evenodd" fill-opacity="1" stroke="#000000" stroke-opacity="1" stroke-width="0"/>
<circle clip-path="url(#clip092)" cx="1655.63" cy="1372.89" r="21.6" fill="#ee7733" fill-rule="evenodd" fill-opacity="1" stroke="#000000" stroke-opacity="1" stroke-width="0"/>
<circle clip-path="url(#clip092)" cx="1691.05" cy="1367.21" r="21.6" fill="#ee7733" fill-rule="evenodd" fill-opacity="1" stroke="#000000" stroke-opacity="1" stroke-width="0"/>
<circle clip-path="url(#clip092)" cx="1726.47" cy="1378.56" r="21.6" fill="#ee7733" fill-rule="evenodd" fill-opacity="1" stroke="#000000" stroke-opacity="1" stroke-width="0"/>
<circle clip-path="url(#clip092)" cx="1761.9" cy="1378.56" r="21.6" fill="#ee7733" fill-rule="evenodd" fill-opacity="1" stroke="#000000" stroke-opacity="1" stroke-width="0"/>
<circle clip-path="url(#clip092)" cx="1797.32" cy="1382.35" r="21.6" fill="#ee7733" fill-rule="evenodd" fill-opacity="1" stroke="#000000" stroke-opacity="1" stroke-width="0"/>
<circle clip-path="url(#clip092)" cx="1832.74" cy="1384.24" r="21.6" fill="#ee7733" fill-rule="evenodd" fill-opacity="1" stroke="#000000" stroke-opacity="1" stroke-width="0"/>
<circle clip-path="url(#clip092)" cx="1868.17" cy="1384.24" r="21.6" fill="#ee7733" fill-rule="evenodd" fill-opacity="1" stroke="#000000" stroke-opacity="1" stroke-width="0"/>
<circle clip-path="url(#clip092)" cx="1903.59" cy="1384.24" r="21.6" fill="#ee7733" fill-rule="evenodd" fill-opacity="1" stroke="#000000" stroke-opacity="1" stroke-width="0"/>
<circle clip-path="url(#clip092)" cx="1939.01" cy="1382.35" r="21.6" fill="#ee7733" fill-rule="evenodd" fill-opacity="1" stroke="#000000" stroke-opacity="1" stroke-width="0"/>
<circle clip-path="url(#clip092)" cx="1974.43" cy="1384.24" r="21.6" fill="#ee7733" fill-rule="evenodd" fill-opacity="1" stroke="#000000" stroke-opacity="1" stroke-width="0"/>
<circle clip-path="url(#clip092)" cx="2009.86" cy="1384.24" r="21.6" fill="#ee7733" fill-rule="evenodd" fill-opacity="1" stroke="#000000" stroke-opacity="1" stroke-width="0"/>
<circle clip-path="url(#clip092)" cx="2045.28" cy="1384.24" r="21.6" fill="#ee7733" fill-rule="evenodd" fill-opacity="1" stroke="#000000" stroke-opacity="1" stroke-width="0"/>
<circle clip-path="url(#clip092)" cx="2080.7" cy="1384.24" r="21.6" fill="#ee7733" fill-rule="evenodd" fill-opacity="1" stroke="#000000" stroke-opacity="1" stroke-width="0"/>
<circle clip-path="url(#clip092)" cx="2116.13" cy="1384.24" r="21.6" fill="#ee7733" fill-rule="evenodd" fill-opacity="1" stroke="#000000" stroke-opacity="1" stroke-width="0"/>
<circle clip-path="url(#clip092)" cx="2151.55" cy="1384.24" r="21.6" fill="#ee7733" fill-rule="evenodd" fill-opacity="1" stroke="#000000" stroke-opacity="1" stroke-width="0"/>
<circle clip-path="url(#clip092)" cx="2186.97" cy="1384.24" r="21.6" fill="#ee7733" fill-rule="evenodd" fill-opacity="1" stroke="#000000" stroke-opacity="1" stroke-width="0"/>
<circle clip-path="url(#clip092)" cx="2222.4" cy="1384.24" r="21.6" fill="#ee7733" fill-rule="evenodd" fill-opacity="1" stroke="#000000" stroke-opacity="1" stroke-width="0"/>
<circle clip-path="url(#clip092)" cx="2257.82" cy="1384.24" r="21.6" fill="#ee7733" fill-rule="evenodd" fill-opacity="1" stroke="#000000" stroke-opacity="1" stroke-width="0"/>
<circle clip-path="url(#clip092)" cx="2293.24" cy="1384.24" r="21.6" fill="#ee7733" fill-rule="evenodd" fill-opacity="1" stroke="#000000" stroke-opacity="1" stroke-width="0"/>
<polyline clip-path="url(#clip092)" style="stroke:#0077bb; stroke-linecap:butt; stroke-linejoin:round; stroke-width:8; stroke-opacity:1; fill:none" stroke-dasharray="32, 20" points="
  309.539,1306.27 344.963,1349.07 380.386,1340.39 415.809,1329.99 451.233,1317.59 486.656,1302.91 522.079,1285.61 557.502,1265.29 592.926,1241.45 628.349,1213.35 
  663.772,1179.95 699.196,1139.7 734.619,1090.53 770.042,1029.94 805.466,955.391 840.889,865.045 876.312,758.725 911.736,638.869 947.159,511.139 982.582,384.363 
  1018.01,269.641 1053.43,178.714 1088.85,121.938 1124.28,106.358 1159.7,134.408 1195.12,203.517 1230.55,306.709 1265.97,433.963 1301.39,573.965 1336.82,715.827 
  1372.24,850.433 1407.66,971.23 1443.09,1074.43 1478.51,1158.76 1513.93,1224.91 1549.36,1274.84 1584.78,1311.21 1620.2,1336.8 1655.63,1354.24 1691.05,1365.76 
  1726.47,1373.14 1761.9,1377.74 1797.32,1380.52 1832.74,1382.16 1868.17,1383.11 1903.59,1383.64 1939.01,1383.92 1974.43,1384.08 2009.86,1384.16 2045.28,1384.2 
  2080.7,1384.22 2116.13,1384.23 2151.55,1384.24 2186.97,1384.24 2222.4,1384.24 2257.82,1384.24 2293.24,1384.24 
  "/>
<polyline clip-path="url(#clip092)" style="stroke:#33bbee; stroke-linecap:butt; stroke-linejoin:round; stroke-width:8; stroke-opacity:1; fill:none" stroke-dasharray="32, 20" points="
  309.539,1355.74 344.963,1338.62 380.386,1324.28 415.809,1310.8 451.233,1297.33 486.656,1283.34 522.079,1268.37 557.502,1251.93 592.926,1233.34 628.349,1211.56 
  663.772,1185.09 699.196,1151.7 734.619,1108.53 770.042,1052.21 805.466,979.455 840.889,888 876.312,777.676 911.736,651.442 947.159,515.928 982.582,381.188 
  1018.01,259.547 1053.43,163.71 1088.85,104.546 1124.28,89.1163 1159.7,119.421 1195.12,192.175 1230.55,299.594 1265.97,430.933 1301.39,574.356 1336.82,718.697 
  1372.24,854.789 1407.66,976.193 1443.09,1079.33 1478.51,1163.17 1513.93,1228.6 1549.36,1277.76 1584.78,1313.4 1620.2,1338.38 1655.63,1355.33 1691.05,1366.48 
  1726.47,1373.61 1761.9,1378.03 1797.32,1380.7 1832.74,1382.27 1868.17,1383.17 1903.59,1383.67 1939.01,1383.94 1974.43,1384.09 2009.86,1384.16 2045.28,1384.2 
  2080.7,1384.22 2116.13,1384.23 2151.55,1384.24 2186.97,1384.24 2222.4,1384.24 2257.82,1384.24 2293.24,1384.24 
  "/>
<path clip-path="url(#clip090)" d="
M1675.51 300.469 L2282.66 300.469 L2282.66 93.1086 L1675.51 93.1086  Z
  " fill="#ffffff" fill-rule="evenodd" fill-opacity="0.9"/>
<polyline clip-path="url(#clip090)" style="stroke:#222255; stroke-linecap:butt; stroke-linejoin:round; stroke-width:4; stroke-opacity:0.1; fill:none" points="
  1675.51,300.469 2282.66,300.469 2282.66,93.1086 1675.51,93.1086 1675.51,300.469 
  "/>
<circle clip-path="url(#clip090)" cx="1768.97" cy="144.949" r="23.04" fill="#ee7733" fill-rule="evenodd" fill-opacity="1" stroke="#000000" stroke-opacity="1" stroke-width="0"/>
<path clip-path="url(#clip090)" d="M1880.85 137.067 L1880.85 141.094 Q1879.04 140.169 1877.1 139.706 Q1875.15 139.243 1873.07 139.243 Q1869.9 139.243 1868.3 140.215 Q1866.73 141.187 1866.73 143.131 Q1866.73 144.613 1867.86 145.469 Q1869 146.303 1872.42 147.067 L1873.88 147.391 Q1878.42 148.363 1880.31 150.145 Q1882.24 151.905 1882.24 155.076 Q1882.24 158.687 1879.37 160.793 Q1876.52 162.9 1871.52 162.9 Q1869.44 162.9 1867.17 162.483 Q1864.92 162.09 1862.42 161.28 L1862.42 156.881 Q1864.78 158.108 1867.07 158.733 Q1869.37 159.335 1871.61 159.335 Q1874.62 159.335 1876.24 158.317 Q1877.86 157.275 1877.86 155.4 Q1877.86 153.664 1876.68 152.738 Q1875.52 151.812 1871.56 150.956 L1870.08 150.608 Q1866.12 149.775 1864.37 148.062 Q1862.61 146.326 1862.61 143.317 Q1862.61 139.659 1865.2 137.669 Q1867.79 135.678 1872.56 135.678 Q1874.92 135.678 1877 136.025 Q1879.09 136.372 1880.85 137.067 Z" fill="#000000" fill-rule="evenodd" fill-opacity="1" /><path clip-path="url(#clip090)" d="M1899.81 164.636 Q1898 169.266 1896.29 170.678 Q1894.57 172.09 1891.7 172.09 L1888.3 172.09 L1888.3 168.525 L1890.8 168.525 Q1892.56 168.525 1893.53 167.692 Q1894.5 166.858 1895.68 163.756 L1896.45 161.812 L1885.96 136.303 L1890.48 136.303 L1898.58 156.581 L1906.68 136.303 L1911.19 136.303 L1899.81 164.636 Z" fill="#000000" fill-rule="evenodd" fill-opacity="1" /><path clip-path="url(#clip090)" d="M1938.62 146.581 L1938.62 162.229 L1934.37 162.229 L1934.37 146.719 Q1934.37 143.039 1932.93 141.21 Q1931.49 139.382 1928.62 139.382 Q1925.18 139.382 1923.18 141.581 Q1921.19 143.78 1921.19 147.576 L1921.19 162.229 L1916.91 162.229 L1916.91 136.303 L1921.19 136.303 L1921.19 140.331 Q1922.72 137.993 1924.78 136.835 Q1926.87 135.678 1929.57 135.678 Q1934.04 135.678 1936.33 138.456 Q1938.62 141.21 1938.62 146.581 Z" fill="#000000" fill-rule="evenodd" fill-opacity="1" /><path clip-path="url(#clip090)" d="M1951.33 128.942 L1951.33 136.303 L1960.11 136.303 L1960.11 139.613 L1951.33 139.613 L1951.33 153.687 Q1951.33 156.858 1952.19 157.761 Q1953.07 158.664 1955.73 158.664 L1960.11 158.664 L1960.11 162.229 L1955.73 162.229 Q1950.8 162.229 1948.93 160.4 Q1947.05 158.548 1947.05 153.687 L1947.05 139.613 L1943.93 139.613 L1943.93 136.303 L1947.05 136.303 L1947.05 128.942 L1951.33 128.942 Z" fill="#000000" fill-rule="evenodd" fill-opacity="1" /><path clip-path="url(#clip090)" d="M1987.26 146.581 L1987.26 162.229 L1983 162.229 L1983 146.719 Q1983 143.039 1981.56 141.21 Q1980.13 139.382 1977.26 139.382 Q1973.81 139.382 1971.82 141.581 Q1969.83 143.78 1969.83 147.576 L1969.83 162.229 L1965.55 162.229 L1965.55 126.21 L1969.83 126.21 L1969.83 140.331 Q1971.36 137.993 1973.42 136.835 Q1975.5 135.678 1978.21 135.678 Q1982.68 135.678 1984.97 138.456 Q1987.26 141.21 1987.26 146.581 Z" fill="#000000" fill-rule="evenodd" fill-opacity="1" /><path clip-path="url(#clip090)" d="M2017.93 148.201 L2017.93 150.284 L1998.35 150.284 Q1998.62 154.682 2000.99 156.997 Q2003.37 159.289 2007.61 159.289 Q2010.06 159.289 2012.35 158.687 Q2014.67 158.085 2016.93 156.881 L2016.93 160.909 Q2014.64 161.881 2012.24 162.391 Q2009.83 162.9 2007.35 162.9 Q2001.15 162.9 1997.51 159.289 Q1993.9 155.678 1993.9 149.52 Q1993.9 143.155 1997.33 139.428 Q2000.78 135.678 2006.61 135.678 Q2011.84 135.678 2014.87 139.057 Q2017.93 142.414 2017.93 148.201 M2013.67 146.951 Q2013.62 143.456 2011.7 141.372 Q2009.8 139.289 2006.66 139.289 Q2003.09 139.289 2000.94 141.303 Q1998.81 143.317 1998.49 146.974 L2013.67 146.951 Z" fill="#000000" fill-rule="evenodd" fill-opacity="1" /><path clip-path="url(#clip090)" d="M2029.13 128.942 L2029.13 136.303 L2037.91 136.303 L2037.91 139.613 L2029.13 139.613 L2029.13 153.687 Q2029.13 156.858 2029.99 157.761 Q2030.87 158.664 2033.53 158.664 L2037.91 158.664 L2037.91 162.229 L2033.53 162.229 Q2028.6 162.229 2026.73 160.4 Q2024.85 158.548 2024.85 153.687 L2024.85 139.613 L2021.73 139.613 L2021.73 136.303 L2024.85 136.303 L2024.85 128.942 L2029.13 128.942 Z" fill="#000000" fill-rule="evenodd" fill-opacity="1" /><path clip-path="url(#clip090)" d="M2043.51 136.303 L2047.77 136.303 L2047.77 162.229 L2043.51 162.229 L2043.51 136.303 M2043.51 126.21 L2047.77 126.21 L2047.77 131.604 L2043.51 131.604 L2043.51 126.21 Z" fill="#000000" fill-rule="evenodd" fill-opacity="1" /><path clip-path="url(#clip090)" d="M2075.34 137.298 L2075.34 141.28 Q2073.53 140.284 2071.7 139.798 Q2069.9 139.289 2068.05 139.289 Q2063.9 139.289 2061.61 141.928 Q2059.32 144.544 2059.32 149.289 Q2059.32 154.034 2061.61 156.673 Q2063.9 159.289 2068.05 159.289 Q2069.9 159.289 2071.7 158.803 Q2073.53 158.293 2075.34 157.298 L2075.34 161.233 Q2073.55 162.067 2071.63 162.483 Q2069.73 162.9 2067.58 162.9 Q2061.73 162.9 2058.28 159.219 Q2054.83 155.539 2054.83 149.289 Q2054.83 142.946 2058.3 139.312 Q2061.8 135.678 2067.86 135.678 Q2069.83 135.678 2071.7 136.095 Q2073.58 136.488 2075.34 137.298 Z" fill="#000000" fill-rule="evenodd" fill-opacity="1" /><path clip-path="url(#clip090)" d="M2114.87 140.238 L2114.87 126.21 L2119.13 126.21 L2119.13 162.229 L2114.87 162.229 L2114.87 158.34 Q2113.53 160.655 2111.47 161.789 Q2109.43 162.9 2106.56 162.9 Q2101.86 162.9 2098.9 159.15 Q2095.96 155.4 2095.96 149.289 Q2095.96 143.178 2098.9 139.428 Q2101.86 135.678 2106.56 135.678 Q2109.43 135.678 2111.47 136.812 Q2113.53 137.923 2114.87 140.238 M2100.36 149.289 Q2100.36 153.988 2102.28 156.673 Q2104.23 159.335 2107.61 159.335 Q2110.98 159.335 2112.93 156.673 Q2114.87 153.988 2114.87 149.289 Q2114.87 144.59 2112.93 141.928 Q2110.98 139.243 2107.61 139.243 Q2104.23 139.243 2102.28 141.928 Q2100.36 144.59 2100.36 149.289 Z" fill="#000000" fill-rule="evenodd" fill-opacity="1" /><path clip-path="url(#clip090)" d="M2139.69 149.196 Q2134.53 149.196 2132.54 150.377 Q2130.54 151.557 2130.54 154.405 Q2130.54 156.673 2132.03 158.016 Q2133.53 159.335 2136.1 159.335 Q2139.64 159.335 2141.77 156.835 Q2143.92 154.312 2143.92 150.145 L2143.92 149.196 L2139.69 149.196 M2148.18 147.437 L2148.18 162.229 L2143.92 162.229 L2143.92 158.293 Q2142.47 160.655 2140.29 161.789 Q2138.11 162.9 2134.97 162.9 Q2130.98 162.9 2128.62 160.678 Q2126.29 158.432 2126.29 154.682 Q2126.29 150.307 2129.2 148.085 Q2132.14 145.863 2137.95 145.863 L2143.92 145.863 L2143.92 145.446 Q2143.92 142.507 2141.98 140.909 Q2140.06 139.289 2136.56 139.289 Q2134.34 139.289 2132.23 139.821 Q2130.13 140.354 2128.18 141.419 L2128.18 137.483 Q2130.52 136.581 2132.72 136.141 Q2134.92 135.678 2137 135.678 Q2142.63 135.678 2145.41 138.594 Q2148.18 141.511 2148.18 147.437 Z" fill="#000000" fill-rule="evenodd" fill-opacity="1" /><path clip-path="url(#clip090)" d="M2161.17 128.942 L2161.17 136.303 L2169.94 136.303 L2169.94 139.613 L2161.17 139.613 L2161.17 153.687 Q2161.17 156.858 2162.03 157.761 Q2162.91 158.664 2165.57 158.664 L2169.94 158.664 L2169.94 162.229 L2165.57 162.229 Q2160.64 162.229 2158.76 160.4 Q2156.89 158.548 2156.89 153.687 L2156.89 139.613 L2153.76 139.613 L2153.76 136.303 L2156.89 136.303 L2156.89 128.942 L2161.17 128.942 Z" fill="#000000" fill-rule="evenodd" fill-opacity="1" /><path clip-path="url(#clip090)" d="M2187.33 149.196 Q2182.16 149.196 2180.17 150.377 Q2178.18 151.557 2178.18 154.405 Q2178.18 156.673 2179.66 158.016 Q2181.17 159.335 2183.74 159.335 Q2187.28 159.335 2189.41 156.835 Q2191.56 154.312 2191.56 150.145 L2191.56 149.196 L2187.33 149.196 M2195.82 147.437 L2195.82 162.229 L2191.56 162.229 L2191.56 158.293 Q2190.1 160.655 2187.93 161.789 Q2185.75 162.9 2182.6 162.9 Q2178.62 162.9 2176.26 160.678 Q2173.92 158.432 2173.92 154.682 Q2173.92 150.307 2176.84 148.085 Q2179.78 145.863 2185.59 145.863 L2191.56 145.863 L2191.56 145.446 Q2191.56 142.507 2189.62 140.909 Q2187.7 139.289 2184.2 139.289 Q2181.98 139.289 2179.87 139.821 Q2177.77 140.354 2175.82 141.419 L2175.82 137.483 Q2178.16 136.581 2180.36 136.141 Q2182.56 135.678 2184.64 135.678 Q2190.27 135.678 2193.04 138.594 Q2195.82 141.511 2195.82 147.437 Z" fill="#000000" fill-rule="evenodd" fill-opacity="1" /><polyline clip-path="url(#clip090)" style="stroke:#0077bb; stroke-linecap:butt; stroke-linejoin:round; stroke-width:4; stroke-opacity:1; fill:none" stroke-dasharray="16, 10" points="
  1698.88,196.789 1839.06,196.789 
  "/>
<path clip-path="url(#clip090)" d="M1867.1 183.351 L1867.1 210.226 L1872.75 210.226 Q1879.9 210.226 1883.21 206.985 Q1886.54 203.745 1886.54 196.754 Q1886.54 189.809 1883.21 186.592 Q1879.9 183.351 1872.75 183.351 L1867.1 183.351 M1862.42 179.509 L1872.03 179.509 Q1882.07 179.509 1886.77 183.698 Q1891.47 187.865 1891.47 196.754 Q1891.47 205.689 1886.75 209.879 Q1882.03 214.069 1872.03 214.069 L1862.42 214.069 L1862.42 179.509 Z" fill="#000000" fill-rule="evenodd" fill-opacity="1" /><path clip-path="url(#clip090)" d="M1920.92 200.041 L1920.92 202.124 L1901.33 202.124 Q1901.61 206.522 1903.97 208.837 Q1906.36 211.129 1910.59 211.129 Q1913.05 211.129 1915.34 210.527 Q1917.65 209.925 1919.92 208.721 L1919.92 212.749 Q1917.63 213.721 1915.22 214.231 Q1912.81 214.74 1910.34 214.74 Q1904.13 214.74 1900.5 211.129 Q1896.89 207.518 1896.89 201.36 Q1896.89 194.995 1900.31 191.268 Q1903.76 187.518 1909.6 187.518 Q1914.83 187.518 1917.86 190.897 Q1920.92 194.254 1920.92 200.041 M1916.66 198.791 Q1916.61 195.296 1914.69 193.212 Q1912.79 191.129 1909.64 191.129 Q1906.08 191.129 1903.93 193.143 Q1901.8 195.157 1901.47 198.814 L1916.66 198.791 Z" fill="#000000" fill-rule="evenodd" fill-opacity="1" /><path clip-path="url(#clip090)" d="M1927.91 178.05 L1932.17 178.05 L1932.17 214.069 L1927.91 214.069 L1927.91 178.05 Z" fill="#000000" fill-rule="evenodd" fill-opacity="1" /><path clip-path="url(#clip090)" d="M1952.86 201.036 Q1947.7 201.036 1945.71 202.217 Q1943.72 203.397 1943.72 206.245 Q1943.72 208.513 1945.2 209.856 Q1946.7 211.175 1949.27 211.175 Q1952.81 211.175 1954.94 208.675 Q1957.1 206.152 1957.1 201.985 L1957.1 201.036 L1952.86 201.036 M1961.36 199.277 L1961.36 214.069 L1957.1 214.069 L1957.1 210.133 Q1955.64 212.495 1953.46 213.629 Q1951.29 214.74 1948.14 214.74 Q1944.16 214.74 1941.8 212.518 Q1939.46 210.272 1939.46 206.522 Q1939.46 202.147 1942.37 199.925 Q1945.31 197.703 1951.12 197.703 L1957.1 197.703 L1957.1 197.286 Q1957.1 194.347 1955.15 192.749 Q1953.23 191.129 1949.74 191.129 Q1947.51 191.129 1945.41 191.661 Q1943.3 192.194 1941.36 193.259 L1941.36 189.323 Q1943.69 188.421 1945.89 187.981 Q1948.09 187.518 1950.18 187.518 Q1955.8 187.518 1958.58 190.434 Q1961.36 193.351 1961.36 199.277 Z" fill="#000000" fill-rule="evenodd" fill-opacity="1" /><path clip-path="url(#clip090)" d="M1980.92 216.476 Q1979.11 221.106 1977.4 222.518 Q1975.68 223.93 1972.81 223.93 L1969.41 223.93 L1969.41 220.365 L1971.91 220.365 Q1973.67 220.365 1974.64 219.532 Q1975.62 218.698 1976.8 215.596 L1977.56 213.652 L1967.07 188.143 L1971.59 188.143 L1979.69 208.421 L1987.79 188.143 L1992.3 188.143 L1980.92 216.476 Z" fill="#000000" fill-rule="evenodd" fill-opacity="1" /><path clip-path="url(#clip090)" d="M2008.65 179.509 L2037.88 179.509 L2037.88 183.444 L2025.61 183.444 L2025.61 214.069 L2020.92 214.069 L2020.92 183.444 L2008.65 183.444 L2008.65 179.509 Z" fill="#000000" fill-rule="evenodd" fill-opacity="1" /><path clip-path="url(#clip090)" d="M2056.33 200.041 L2056.33 202.124 L2036.75 202.124 Q2037.03 206.522 2039.39 208.837 Q2041.77 211.129 2046.01 211.129 Q2048.46 211.129 2050.75 210.527 Q2053.07 209.925 2055.34 208.721 L2055.34 212.749 Q2053.05 213.721 2050.64 214.231 Q2048.23 214.74 2045.75 214.74 Q2039.55 214.74 2035.92 211.129 Q2032.3 207.518 2032.3 201.36 Q2032.3 194.995 2035.73 191.268 Q2039.18 187.518 2045.01 187.518 Q2050.24 187.518 2053.28 190.897 Q2056.33 194.254 2056.33 200.041 M2052.07 198.791 Q2052.03 195.296 2050.11 193.212 Q2048.21 191.129 2045.06 191.129 Q2041.49 191.129 2039.34 193.143 Q2037.21 195.157 2036.89 198.814 L2052.07 198.791 Z" fill="#000000" fill-rule="evenodd" fill-opacity="1" /><path clip-path="url(#clip090)" d="M2063.32 178.05 L2067.58 178.05 L2067.58 214.069 L2063.32 214.069 L2063.32 178.05 Z" fill="#000000" fill-rule="evenodd" fill-opacity="1" /><path clip-path="url(#clip090)" d="M2098.67 200.041 L2098.67 202.124 L2079.09 202.124 Q2079.36 206.522 2081.73 208.837 Q2084.11 211.129 2088.35 211.129 Q2090.8 211.129 2093.09 210.527 Q2095.41 209.925 2097.67 208.721 L2097.67 212.749 Q2095.38 213.721 2092.98 214.231 Q2090.57 214.74 2088.09 214.74 Q2081.89 214.74 2078.25 211.129 Q2074.64 207.518 2074.64 201.36 Q2074.64 194.995 2078.07 191.268 Q2081.52 187.518 2087.35 187.518 Q2092.58 187.518 2095.61 190.897 Q2098.67 194.254 2098.67 200.041 M2094.41 198.791 Q2094.36 195.296 2092.44 193.212 Q2090.54 191.129 2087.4 191.129 Q2083.83 191.129 2081.68 193.143 Q2079.55 195.157 2079.23 198.814 L2094.41 198.791 Z" fill="#000000" fill-rule="evenodd" fill-opacity="1" /><path clip-path="url(#clip090)" d="M2122.72 200.805 Q2122.72 196.175 2120.8 193.629 Q2118.9 191.083 2115.45 191.083 Q2112.03 191.083 2110.11 193.629 Q2108.21 196.175 2108.21 200.805 Q2108.21 205.411 2110.11 207.958 Q2112.03 210.504 2115.45 210.504 Q2118.9 210.504 2120.8 207.958 Q2122.72 205.411 2122.72 200.805 M2126.98 210.851 Q2126.98 217.471 2124.04 220.689 Q2121.1 223.93 2115.04 223.93 Q2112.79 223.93 2110.8 223.582 Q2108.81 223.258 2106.93 222.564 L2106.93 218.42 Q2108.81 219.439 2110.64 219.925 Q2112.47 220.411 2114.36 220.411 Q2118.55 220.411 2120.64 218.212 Q2122.72 216.036 2122.72 211.615 L2122.72 209.508 Q2121.4 211.8 2119.34 212.934 Q2117.28 214.069 2114.41 214.069 Q2109.64 214.069 2106.73 210.434 Q2103.81 206.8 2103.81 200.805 Q2103.81 194.786 2106.73 191.152 Q2109.64 187.518 2114.41 187.518 Q2117.28 187.518 2119.34 188.652 Q2121.4 189.786 2122.72 192.078 L2122.72 188.143 L2126.98 188.143 L2126.98 210.851 Z" fill="#000000" fill-rule="evenodd" fill-opacity="1" /><path clip-path="url(#clip090)" d="M2150.78 192.124 Q2150.06 191.708 2149.2 191.522 Q2148.37 191.314 2147.35 191.314 Q2143.74 191.314 2141.79 193.675 Q2139.87 196.013 2139.87 200.411 L2139.87 214.069 L2135.59 214.069 L2135.59 188.143 L2139.87 188.143 L2139.87 192.171 Q2141.22 189.809 2143.37 188.675 Q2145.52 187.518 2148.6 187.518 Q2149.04 187.518 2149.57 187.587 Q2150.1 187.634 2150.75 187.749 L2150.78 192.124 Z" fill="#000000" fill-rule="evenodd" fill-opacity="1" /><path clip-path="url(#clip090)" d="M2167.03 201.036 Q2161.86 201.036 2159.87 202.217 Q2157.88 203.397 2157.88 206.245 Q2157.88 208.513 2159.36 209.856 Q2160.87 211.175 2163.44 211.175 Q2166.98 211.175 2169.11 208.675 Q2171.26 206.152 2171.26 201.985 L2171.26 201.036 L2167.03 201.036 M2175.52 199.277 L2175.52 214.069 L2171.26 214.069 L2171.26 210.133 Q2169.8 212.495 2167.63 213.629 Q2165.45 214.74 2162.3 214.74 Q2158.32 214.74 2155.96 212.518 Q2153.62 210.272 2153.62 206.522 Q2153.62 202.147 2156.54 199.925 Q2159.48 197.703 2165.29 197.703 L2171.26 197.703 L2171.26 197.286 Q2171.26 194.347 2169.32 192.749 Q2167.4 191.129 2163.9 191.129 Q2161.68 191.129 2159.57 191.661 Q2157.47 192.194 2155.52 193.259 L2155.52 189.323 Q2157.86 188.421 2160.06 187.981 Q2162.26 187.518 2164.34 187.518 Q2169.97 187.518 2172.74 190.434 Q2175.52 193.351 2175.52 199.277 Z" fill="#000000" fill-rule="evenodd" fill-opacity="1" /><path clip-path="url(#clip090)" d="M2188.41 210.18 L2188.41 223.93 L2184.13 223.93 L2184.13 188.143 L2188.41 188.143 L2188.41 192.078 Q2189.76 189.763 2191.79 188.652 Q2193.85 187.518 2196.7 187.518 Q2201.42 187.518 2204.36 191.268 Q2207.33 195.018 2207.33 201.129 Q2207.33 207.24 2204.36 210.99 Q2201.42 214.74 2196.7 214.74 Q2193.85 214.74 2191.79 213.629 Q2189.76 212.495 2188.41 210.18 M2202.91 201.129 Q2202.91 196.43 2200.96 193.768 Q2199.04 191.083 2195.66 191.083 Q2192.28 191.083 2190.34 193.768 Q2188.41 196.43 2188.41 201.129 Q2188.41 205.828 2190.34 208.513 Q2192.28 211.175 2195.66 211.175 Q2199.04 211.175 2200.96 208.513 Q2202.91 205.828 2202.91 201.129 Z" fill="#000000" fill-rule="evenodd" fill-opacity="1" /><path clip-path="url(#clip090)" d="M2235.94 198.421 L2235.94 214.069 L2231.68 214.069 L2231.68 198.559 Q2231.68 194.879 2230.24 193.05 Q2228.81 191.222 2225.94 191.222 Q2222.49 191.222 2220.5 193.421 Q2218.51 195.62 2218.51 199.416 L2218.51 214.069 L2214.22 214.069 L2214.22 178.05 L2218.51 178.05 L2218.51 192.171 Q2220.04 189.833 2222.1 188.675 Q2224.18 187.518 2226.89 187.518 Q2231.35 187.518 2233.65 190.296 Q2235.94 193.05 2235.94 198.421 Z" fill="#000000" fill-rule="evenodd" fill-opacity="1" /><polyline clip-path="url(#clip090)" style="stroke:#33bbee; stroke-linecap:butt; stroke-linejoin:round; stroke-width:4; stroke-opacity:1; fill:none" stroke-dasharray="16, 10" points="
  1698.88,248.629 1839.06,248.629 
  "/>
<path clip-path="url(#clip090)" d="M1862.42 231.349 L1891.66 231.349 L1891.66 235.284 L1879.39 235.284 L1879.39 265.909 L1874.69 265.909 L1874.69 235.284 L1862.42 235.284 L1862.42 231.349 Z" fill="#000000" fill-rule="evenodd" fill-opacity="1" /><path clip-path="url(#clip090)" d="M1910.11 251.881 L1910.11 253.964 L1890.52 253.964 Q1890.8 258.362 1893.16 260.677 Q1895.55 262.969 1899.78 262.969 Q1902.24 262.969 1904.53 262.367 Q1906.84 261.765 1909.11 260.561 L1909.11 264.589 Q1906.82 265.561 1904.41 266.071 Q1902 266.58 1899.53 266.58 Q1893.32 266.58 1889.69 262.969 Q1886.08 259.358 1886.08 253.2 Q1886.08 246.835 1889.5 243.108 Q1892.95 239.358 1898.79 239.358 Q1904.02 239.358 1907.05 242.737 Q1910.11 246.094 1910.11 251.881 M1905.85 250.631 Q1905.8 247.136 1903.88 245.052 Q1901.98 242.969 1898.83 242.969 Q1895.27 242.969 1893.12 244.983 Q1890.99 246.997 1890.66 250.654 L1905.85 250.631 Z" fill="#000000" fill-rule="evenodd" fill-opacity="1" /><path clip-path="url(#clip090)" d="M1917.1 229.89 L1921.36 229.89 L1921.36 265.909 L1917.1 265.909 L1917.1 229.89 Z" fill="#000000" fill-rule="evenodd" fill-opacity="1" /><path clip-path="url(#clip090)" d="M1952.44 251.881 L1952.44 253.964 L1932.86 253.964 Q1933.14 258.362 1935.5 260.677 Q1937.88 262.969 1942.12 262.969 Q1944.57 262.969 1946.87 262.367 Q1949.18 261.765 1951.45 260.561 L1951.45 264.589 Q1949.16 265.561 1946.75 266.071 Q1944.34 266.58 1941.87 266.58 Q1935.66 266.58 1932.03 262.969 Q1928.42 259.358 1928.42 253.2 Q1928.42 246.835 1931.84 243.108 Q1935.29 239.358 1941.12 239.358 Q1946.36 239.358 1949.39 242.737 Q1952.44 246.094 1952.44 251.881 M1948.18 250.631 Q1948.14 247.136 1946.22 245.052 Q1944.32 242.969 1941.17 242.969 Q1937.61 242.969 1935.45 244.983 Q1933.32 246.997 1933 250.654 L1948.18 250.631 Z" fill="#000000" fill-rule="evenodd" fill-opacity="1" /><path clip-path="url(#clip090)" d="M1976.49 252.645 Q1976.49 248.015 1974.57 245.469 Q1972.68 242.923 1969.23 242.923 Q1965.8 242.923 1963.88 245.469 Q1961.98 248.015 1961.98 252.645 Q1961.98 257.251 1963.88 259.798 Q1965.8 262.344 1969.23 262.344 Q1972.68 262.344 1974.57 259.798 Q1976.49 257.251 1976.49 252.645 M1980.75 262.691 Q1980.75 269.311 1977.81 272.529 Q1974.87 275.77 1968.81 275.77 Q1966.56 275.77 1964.57 275.422 Q1962.58 275.098 1960.71 274.404 L1960.71 270.26 Q1962.58 271.279 1964.41 271.765 Q1966.24 272.251 1968.14 272.251 Q1972.33 272.251 1974.41 270.052 Q1976.49 267.876 1976.49 263.455 L1976.49 261.348 Q1975.18 263.64 1973.12 264.774 Q1971.05 265.909 1968.18 265.909 Q1963.42 265.909 1960.5 262.274 Q1957.58 258.64 1957.58 252.645 Q1957.58 246.626 1960.5 242.992 Q1963.42 239.358 1968.18 239.358 Q1971.05 239.358 1973.12 240.492 Q1975.18 241.626 1976.49 243.918 L1976.49 239.983 L1980.75 239.983 L1980.75 262.691 Z" fill="#000000" fill-rule="evenodd" fill-opacity="1" /><path clip-path="url(#clip090)" d="M2004.55 243.964 Q2003.83 243.548 2002.98 243.362 Q2002.14 243.154 2001.12 243.154 Q1997.51 243.154 1995.57 245.515 Q1993.65 247.853 1993.65 252.251 L1993.65 265.909 L1989.36 265.909 L1989.36 239.983 L1993.65 239.983 L1993.65 244.011 Q1994.99 241.649 1997.14 240.515 Q1999.3 239.358 2002.37 239.358 Q2002.81 239.358 2003.35 239.427 Q2003.88 239.474 2004.53 239.589 L2004.55 243.964 Z" fill="#000000" fill-rule="evenodd" fill-opacity="1" /><path clip-path="url(#clip090)" d="M2020.8 252.876 Q2015.64 252.876 2013.65 254.057 Q2011.66 255.237 2011.66 258.085 Q2011.66 260.353 2013.14 261.696 Q2014.64 263.015 2017.21 263.015 Q2020.75 263.015 2022.88 260.515 Q2025.04 257.992 2025.04 253.825 L2025.04 252.876 L2020.8 252.876 M2029.3 251.117 L2029.3 265.909 L2025.04 265.909 L2025.04 261.973 Q2023.58 264.335 2021.4 265.469 Q2019.23 266.58 2016.08 266.58 Q2012.1 266.58 2009.74 264.358 Q2007.4 262.112 2007.4 258.362 Q2007.4 253.987 2010.31 251.765 Q2013.25 249.543 2019.06 249.543 L2025.04 249.543 L2025.04 249.126 Q2025.04 246.187 2023.09 244.589 Q2021.17 242.969 2017.67 242.969 Q2015.45 242.969 2013.35 243.501 Q2011.24 244.034 2009.3 245.099 L2009.3 241.163 Q2011.63 240.261 2013.83 239.821 Q2016.03 239.358 2018.11 239.358 Q2023.74 239.358 2026.52 242.274 Q2029.3 245.191 2029.3 251.117 Z" fill="#000000" fill-rule="evenodd" fill-opacity="1" /><path clip-path="url(#clip090)" d="M2042.19 262.02 L2042.19 275.77 L2037.91 275.77 L2037.91 239.983 L2042.19 239.983 L2042.19 243.918 Q2043.53 241.603 2045.57 240.492 Q2047.63 239.358 2050.48 239.358 Q2055.2 239.358 2058.14 243.108 Q2061.1 246.858 2061.1 252.969 Q2061.1 259.08 2058.14 262.83 Q2055.2 266.58 2050.48 266.58 Q2047.63 266.58 2045.57 265.469 Q2043.53 264.335 2042.19 262.02 M2056.68 252.969 Q2056.68 248.27 2054.73 245.608 Q2052.81 242.923 2049.43 242.923 Q2046.05 242.923 2044.11 245.608 Q2042.19 248.27 2042.19 252.969 Q2042.19 257.668 2044.11 260.353 Q2046.05 263.015 2049.43 263.015 Q2052.81 263.015 2054.73 260.353 Q2056.68 257.668 2056.68 252.969 Z" fill="#000000" fill-rule="evenodd" fill-opacity="1" /><path clip-path="url(#clip090)" d="M2089.71 250.261 L2089.71 265.909 L2085.45 265.909 L2085.45 250.399 Q2085.45 246.719 2084.02 244.89 Q2082.58 243.062 2079.71 243.062 Q2076.26 243.062 2074.27 245.261 Q2072.28 247.46 2072.28 251.256 L2072.28 265.909 L2068 265.909 L2068 229.89 L2072.28 229.89 L2072.28 244.011 Q2073.81 241.673 2075.87 240.515 Q2077.95 239.358 2080.66 239.358 Q2085.13 239.358 2087.42 242.136 Q2089.71 244.89 2089.71 250.261 Z" fill="#000000" fill-rule="evenodd" fill-opacity="1" /></svg>
